<svg version="1.1" id="Layer_1" xmlns="http://www.w3.org/2000/svg" xmlns:xlink="http://www.w3.org/1999/xlink" x="0px" y="0px"
	 width="100%" viewBox="0 0 512 512" enable-background="new 0 0 512 512" xml:space="preserve">
<path fill="#000000" opacity="1.000000" stroke="none" 
	d="
M278.000000,513.000000 
	C185.355820,513.000000 93.211639,513.000000 1.033728,513.000000 
	C1.033728,342.397461 1.033728,171.794907 1.033728,1.096182 
	C171.560867,1.096182 342.121796,1.096182 512.841370,1.096182 
	C512.841370,171.666550 512.841370,342.333252 512.841370,513.000000 
	C434.794891,513.000000 356.647430,513.000000 278.000000,513.000000 
M345.868561,128.972992 
	C348.128143,128.972992 350.387695,128.972992 353.143738,128.972992 
	C353.143738,134.615524 353.143738,139.668625 353.143738,144.638733 
	C358.701172,144.638733 363.740143,144.638733 368.652069,144.638733 
	C368.652069,128.600662 368.652069,112.925858 368.652069,97.162354 
	C360.526215,97.162354 352.747162,97.162354 344.046753,97.019753 
	C339.119934,97.019753 334.193115,97.019753 328.998962,97.019753 
	C328.998962,101.244202 328.999207,104.881981 328.998871,108.519760 
	C328.998535,112.347923 329.062866,116.177498 328.980804,120.003914 
	C328.872131,125.071526 326.396545,128.691483 322.004974,128.814529 
	C311.097412,129.120102 300.175568,128.914978 289.341614,128.914978 
	C289.341614,123.315559 289.341614,118.257042 289.341614,112.740265 
	C297.406891,112.740265 305.138184,112.740265 312.782959,112.740265 
	C312.782959,107.326538 312.782959,102.385460 312.782959,97.230896 
	C296.851685,97.230896 281.138580,97.230896 265.212280,97.230896 
	C265.212280,115.193192 265.212280,132.923813 265.212280,151.003357 
	C271.529846,149.315475 277.667908,147.881805 283.667297,146.004852 
	C288.149811,144.602463 291.913422,145.309586 295.953979,147.653549 
	C312.193207,157.074081 328.587585,166.227142 345.368835,175.937241 
	C351.490814,178.409683 353.604156,182.986313 353.081390,189.433762 
	C352.674957,194.446045 353.000122,199.517654 353.000122,205.137634 
	C368.550262,192.184891 372.431824,180.720703 368.323608,161.153854 
	C360.561951,161.153854 352.765656,161.153854 344.252319,160.974121 
	C340.429962,160.320160 337.435577,158.152588 337.252350,154.339096 
	C336.850708,145.980972 337.127899,137.590210 337.127899,128.837631 
	C340.047455,128.837631 342.507904,128.837631 345.868561,128.972992 
M278.202820,164.210495 
	C275.629822,164.866913 273.088684,165.729675 270.476624,166.133163 
	C266.166779,166.798920 264.824615,168.772552 264.856598,173.388672 
	C265.111206,210.140747 264.998535,246.895370 264.998535,283.649200 
	C264.998535,285.393433 264.998535,287.137634 264.998535,289.001648 
	C278.191803,289.001648 290.664276,288.805359 303.121765,289.149384 
	C305.982666,289.228424 308.792267,291.164368 311.847473,293.042480 
	C312.230988,298.277618 312.957855,303.515320 312.919098,308.747345 
	C312.858093,316.976746 312.281586,325.202362 311.294708,333.871246 
	C308.629883,334.913544 306.011505,336.681030 303.291077,336.855225 
	C296.511871,337.289246 289.686310,336.998474 282.879333,336.998535 
	C276.974365,336.998596 271.069397,336.998535 265.334595,336.998535 
	C265.334595,342.722321 265.334595,347.776306 265.334595,352.788116 
	C278.436493,352.788116 291.202118,352.788116 304.884644,352.973724 
	C307.049164,352.983032 309.213776,353.009094 311.378204,352.998993 
	C326.901978,352.926544 336.981232,342.880859 336.991455,327.331940 
	C337.020660,282.873901 336.960846,238.415741 337.085693,193.958054 
	C337.094940,190.670151 336.082703,188.963242 333.240936,187.386292 
	C320.303040,180.206863 307.325592,173.065414 294.744537,165.291794 
	C289.300415,161.927963 284.445190,161.415726 278.202820,164.210495 
M249.001770,291.491699 
	C249.001770,251.765015 249.001770,212.038345 249.001770,171.952530 
	C224.601791,178.469650 200.783798,184.831314 177.004578,191.182632 
	C177.004578,219.109116 176.828995,246.420837 177.059387,273.729156 
	C177.248260,296.115509 185.654129,315.227570 201.741547,330.744904 
	C214.798874,343.339569 230.463364,350.590271 248.745239,352.462250 
	C248.745239,341.797607 248.745239,331.555908 248.745239,320.889648 
	C240.759430,320.889648 233.021500,320.889648 225.284851,320.889648 
	C225.284851,315.391815 225.284851,310.326447 225.284851,304.839355 
	C233.299179,304.839355 241.038483,304.839355 249.001770,304.839355 
	C249.001770,300.438477 249.001770,296.463440 249.001770,291.491699 
M225.279251,161.779388 
	C233.097488,159.655685 240.915710,157.531967 248.770386,155.398361 
	C248.770386,135.858231 248.770386,116.622902 248.770386,97.020660 
	C237.594940,97.020660 226.607910,96.452118 215.712967,97.209099 
	C207.685623,97.766853 199.410431,99.036903 191.883499,101.755531 
	C163.491470,112.010338 145.740707,138.750702 144.774109,168.951340 
	C144.296036,183.888779 147.626328,196.047607 161.002075,204.694214 
	C161.002075,198.604645 160.972168,192.681229 161.010361,186.758286 
	C161.049744,180.653152 162.690765,178.458221 168.636658,176.859711 
	C187.242401,171.857635 205.864746,166.917374 225.279251,161.779388 
M62.500000,480.999847 
	C73.916786,480.999847 85.333572,480.999847 96.695358,480.999847 
	C96.695358,448.674774 96.695358,416.973907 96.695358,385.311584 
	C75.345619,385.311584 54.301838,385.311584 33.304447,385.311584 
	C33.304447,417.324829 33.304447,449.025696 33.304447,480.999847 
	C42.904503,480.999847 52.202251,480.999847 62.500000,480.999847 
M488.999634,36.674522 
	C489.625702,33.393211 487.958679,32.914349 485.085297,32.940296 
	C470.607208,33.071033 456.127289,33.000259 441.648010,33.000217 
	C436.210785,33.000202 430.773560,33.000214 425.269226,33.000214 
	C425.269226,54.574234 425.269226,75.614883 425.269226,96.727905 
	C446.579987,96.727905 467.620636,96.727905 488.999817,96.727905 
	C488.999817,76.852287 488.999817,57.246593 488.999634,36.674522 
M481.001038,474.412415 
	C481.001038,466.011078 481.001038,457.609741 481.001038,449.333527 
	C469.959167,449.333527 459.585083,449.333527 449.335632,449.333527 
	C449.335632,460.045074 449.335632,470.419250 449.335632,480.661774 
	C460.048767,480.661774 470.422424,480.661774 481.001038,480.661774 
	C481.001038,478.679840 481.001038,477.032837 481.001038,474.412415 
M57.091946,270.815063 
	C63.931252,265.613495 66.345695,259.617828 64.358490,252.770432 
	C62.446056,246.180695 56.986355,241.604584 50.369476,241.045425 
	C43.749607,240.486008 37.397289,244.163116 34.561832,250.195862 
	C31.753452,256.170990 32.793346,262.982086 37.250786,267.807892 
	C42.146713,273.108429 48.750786,274.254578 57.091946,270.815063 
M451.191376,280.906921 
	C447.807861,287.280670 448.136841,293.485748 452.677368,299.073700 
	C456.787689,304.132202 462.334412,306.046021 468.749969,304.521698 
	C475.666321,302.878479 480.633514,296.772491 480.978546,289.879120 
	C481.319397,283.068970 477.197693,276.624115 470.905060,274.127777 
	C463.862762,271.334076 457.056732,273.513031 451.191376,280.906921 
M352.990295,240.562408 
	C352.990295,248.649048 352.990295,256.735687 352.990295,264.690796 
	C358.689545,264.690796 363.756439,264.690796 368.692932,264.690796 
	C368.692932,253.972458 368.692932,243.575577 368.692932,233.312317 
	C363.304932,233.312317 358.238159,233.312317 352.990295,233.312317 
	C352.990295,235.613525 352.990295,237.596436 352.990295,240.562408 
M264.990295,314.458435 
	C264.990295,316.557892 264.990295,318.657349 264.990295,320.725952 
	C275.958710,320.725952 286.355072,320.725952 296.720703,320.725952 
	C296.720703,315.371246 296.720703,310.304932 296.720703,305.278320 
	C286.032776,305.278320 275.636322,305.278320 264.990295,305.278320 
	C264.990295,308.200836 264.990295,310.841980 264.990295,314.458435 
M144.996918,256.076508 
	C145.871353,264.132843 150.092590,266.374695 160.756897,264.421051 
	C160.756897,254.061905 160.756897,243.698029 160.756897,232.995636 
	C158.565414,232.995636 156.608307,232.972992 154.651871,232.999756 
	C147.870712,233.092560 145.071625,235.899597 145.003250,242.728378 
	C144.961761,246.872040 144.995514,251.016434 144.996918,256.076508 
M431.383118,173.736053 
	C434.029144,168.143539 432.813507,163.733734 428.058990,161.677536 
	C423.860138,159.861649 419.061462,161.920990 417.498169,166.314270 
	C416.235809,169.861893 417.184418,172.987625 420.106445,175.219345 
	C423.839844,178.070770 427.532623,177.515686 431.383118,173.736053 
z"/>
<path fill="#FED9A9" opacity="1.000000" stroke="none" 
	d="
M249.001770,291.990051 
	C249.001770,296.463440 249.001770,300.438477 249.001770,304.839355 
	C241.038483,304.839355 233.299179,304.839355 225.284851,304.839355 
	C225.284851,310.326447 225.284851,315.391815 225.284851,320.889648 
	C233.021500,320.889648 240.759430,320.889648 248.745239,320.889648 
	C248.745239,331.555908 248.745239,341.797607 248.745239,352.462250 
	C230.463364,350.590271 214.798874,343.339569 201.741547,330.744904 
	C185.654129,315.227570 177.248260,296.115509 177.059387,273.729156 
	C176.828995,246.420837 177.004578,219.109116 177.004578,191.182632 
	C200.783798,184.831314 224.601791,178.469650 249.001770,171.952530 
	C249.001770,212.038345 249.001770,251.765015 249.001770,291.990051 
M227.935486,232.998062 
	C232.232346,232.998062 236.529205,232.998062 240.829529,232.998062 
	C240.529465,218.889801 229.502243,208.461258 215.884216,209.032990 
	C201.472504,209.638016 192.096634,222.959793 193.406769,232.833191 
	C198.494720,232.833191 203.605209,232.833191 208.745773,232.833191 
	C209.735336,228.457947 211.941284,225.259262 216.670273,225.080307 
	C221.100479,224.912689 223.664490,227.478409 224.966843,231.603302 
	C225.163101,232.224884 226.330475,232.539841 227.935486,232.998062 
z"/>
<path fill="#FEDD55" opacity="1.000000" stroke="none" 
	d="
M224.879959,161.866272 
	C205.864746,166.917374 187.242401,171.857635 168.636658,176.859711 
	C162.690765,178.458221 161.049744,180.653152 161.010361,186.758286 
	C160.972168,192.681229 161.002075,198.604645 161.002075,204.694214 
	C147.626328,196.047607 144.296036,183.888779 144.774109,168.951340 
	C145.740707,138.750702 163.491470,112.010338 191.883499,101.755531 
	C199.410431,99.036903 207.685623,97.766853 215.712967,97.209099 
	C226.607910,96.452118 237.594940,97.020660 248.770386,97.020660 
	C248.770386,116.622902 248.770386,135.858231 248.770386,155.398361 
	C240.915710,157.531967 233.097488,159.655685 224.879959,161.866272 
z"/>
<path fill="#57A4FF" opacity="1.000000" stroke="none" 
	d="
M62.000000,480.999847 
	C52.202251,480.999847 42.904503,480.999847 33.304447,480.999847 
	C33.304447,449.025696 33.304447,417.324829 33.304447,385.311584 
	C54.301838,385.311584 75.345619,385.311584 96.695358,385.311584 
	C96.695358,416.973907 96.695358,448.674774 96.695358,480.999847 
	C85.333572,480.999847 73.916786,480.999847 62.000000,480.999847 
z"/>
<path fill="#ABAAB0" opacity="1.000000" stroke="none" 
	d="
M311.923340,333.429565 
	C312.281586,325.202362 312.858093,316.976746 312.919098,308.747345 
	C312.957855,303.515320 312.230988,298.277618 312.065125,292.347076 
	C312.519073,290.707062 312.958832,289.762970 312.961456,288.817719 
	C313.006500,272.424072 313.020660,256.030151 312.954590,239.636658 
	C312.949646,238.412491 312.286407,237.190979 312.075775,235.664246 
	C324.127319,224.578430 324.013062,210.278427 312.208496,197.729156 
	C312.861786,191.728821 315.372955,185.573990 307.974518,181.940552 
	C302.181885,179.095764 296.591583,175.806000 291.070221,172.452484 
	C286.905792,169.923126 282.992584,166.980133 278.967560,164.221237 
	C284.445190,161.415726 289.300415,161.927963 294.744537,165.291794 
	C307.325592,173.065414 320.303040,180.206863 333.240936,187.386292 
	C336.082703,188.963242 337.094940,190.670151 337.085693,193.958054 
	C336.960846,238.415741 337.020660,282.873901 336.991455,327.331940 
	C336.981232,342.880859 326.901978,352.926544 311.378204,352.998993 
	C309.213776,353.009094 307.049164,352.983032 304.483368,352.545532 
	C307.480377,346.217255 312.280792,340.905518 311.923340,333.429565 
z"/>
<path fill="#57A4FF" opacity="1.000000" stroke="none" 
	d="
M488.999725,37.157711 
	C488.999817,57.246593 488.999817,76.852287 488.999817,96.727905 
	C467.620636,96.727905 446.579987,96.727905 425.269226,96.727905 
	C425.269226,75.614883 425.269226,54.574234 425.269226,33.000214 
	C430.773560,33.000214 436.210785,33.000202 441.648010,33.000217 
	C456.127289,33.000259 470.607208,33.071033 485.085297,32.940296 
	C487.958679,32.914349 489.625702,33.393211 488.999725,37.157711 
z"/>
<path fill="#C5C4C9" opacity="1.000000" stroke="none" 
	d="
M311.929169,235.968231 
	C312.286407,237.190979 312.949646,238.412491 312.954590,239.636658 
	C313.020660,256.030151 313.006500,272.424072 312.961456,288.817719 
	C312.958832,289.762970 312.519073,290.707062 311.954132,291.948669 
	C308.792267,291.164368 305.982666,289.228424 303.121765,289.149384 
	C290.664276,288.805359 278.191803,289.001648 264.998535,289.001648 
	C264.998535,287.137634 264.998535,285.393433 264.998535,283.649200 
	C264.998535,246.895370 265.111206,210.140747 264.856598,173.388672 
	C264.824615,168.772552 266.166779,166.798920 270.476624,166.133163 
	C273.088684,165.729675 275.629822,164.866913 278.585205,164.215866 
	C282.992584,166.980133 286.905792,169.923126 291.070221,172.452484 
	C296.591583,175.806000 302.181885,179.095764 307.974518,181.940552 
	C315.372955,185.573990 312.861786,191.728821 311.884155,197.607590 
	C301.361359,191.377884 291.057861,191.420090 282.523529,197.907791 
	C274.423248,204.065521 271.061676,214.443741 274.120819,224.179825 
	C278.395111,237.783356 295.542633,247.246490 311.929169,235.968231 
z"/>
<path fill="#00D6DE" opacity="1.000000" stroke="none" 
	d="
M344.924622,175.479050 
	C328.587585,166.227142 312.193207,157.074081 295.953979,147.653549 
	C291.913422,145.309586 288.149811,144.602463 283.667297,146.004852 
	C277.667908,147.881805 271.529846,149.315475 265.212280,151.003357 
	C265.212280,132.923813 265.212280,115.193192 265.212280,97.230896 
	C281.138580,97.230896 296.851685,97.230896 312.782959,97.230896 
	C312.782959,102.385460 312.782959,107.326538 312.782959,112.740265 
	C305.138184,112.740265 297.406891,112.740265 289.341614,112.740265 
	C289.341614,118.257042 289.341614,123.315559 289.341614,128.914978 
	C300.175568,128.914978 311.097412,129.120102 322.004974,128.814529 
	C326.396545,128.691483 328.872131,125.071526 328.980804,120.003914 
	C329.062866,116.177498 328.998535,112.347923 328.998871,108.519760 
	C328.999207,104.881981 328.998962,101.244202 328.998962,97.019753 
	C334.193115,97.019753 339.119934,97.019753 344.516907,97.549133 
	C344.980835,108.331551 344.974609,118.584587 344.968353,128.837631 
	C342.507904,128.837631 340.047455,128.837631 337.127899,128.837631 
	C337.127899,137.590210 336.850708,145.980972 337.252350,154.339096 
	C337.435577,158.152588 340.429962,160.320160 344.619934,161.521271 
	C344.966583,166.538635 344.945587,171.008835 344.924622,175.479050 
z"/>
<path fill="#00D6DE" opacity="1.000000" stroke="none" 
	d="
M481.001038,474.899139 
	C481.001038,477.032837 481.001038,478.679840 481.001038,480.661774 
	C470.422424,480.661774 460.048767,480.661774 449.335632,480.661774 
	C449.335632,470.419250 449.335632,460.045074 449.335632,449.333527 
	C459.585083,449.333527 469.959167,449.333527 481.001038,449.333527 
	C481.001038,457.609741 481.001038,466.011078 481.001038,474.899139 
z"/>
<path fill="#00B6BD" opacity="1.000000" stroke="none" 
	d="
M345.418457,128.905304 
	C344.974609,118.584587 344.980835,108.331551 344.977600,97.620430 
	C352.747162,97.162354 360.526215,97.162354 368.652069,97.162354 
	C368.652069,112.925858 368.652069,128.600662 368.652069,144.638733 
	C363.740143,144.638733 358.701172,144.638733 353.143738,144.638733 
	C353.143738,139.668625 353.143738,134.615524 353.143738,128.972992 
	C350.387695,128.972992 348.128143,128.972992 345.418457,128.905304 
z"/>
<path fill="#FAE696" opacity="1.000000" stroke="none" 
	d="
M56.743572,270.972778 
	C48.750786,274.254578 42.146713,273.108429 37.250786,267.807892 
	C32.793346,262.982086 31.753452,256.170990 34.561832,250.195862 
	C37.397289,244.163116 43.749607,240.486008 50.369476,241.045425 
	C56.986355,241.604584 62.446056,246.180695 64.358490,252.770432 
	C66.345695,259.617828 63.931252,265.613495 56.743572,270.972778 
z"/>
<path fill="#FAE696" opacity="1.000000" stroke="none" 
	d="
M451.411255,280.602631 
	C457.056732,273.513031 463.862762,271.334076 470.905060,274.127777 
	C477.197693,276.624115 481.319397,283.068970 480.978546,289.879120 
	C480.633514,296.772491 475.666321,302.878479 468.749969,304.521698 
	C462.334412,306.046021 456.787689,304.132202 452.677368,299.073700 
	C448.136841,293.485748 447.807861,287.280670 451.411255,280.602631 
z"/>
<path fill="#00B6BD" opacity="1.000000" stroke="none" 
	d="
M345.146729,175.708145 
	C344.945587,171.008835 344.966583,166.538635 344.978455,161.611145 
	C352.765656,161.153854 360.561951,161.153854 368.323608,161.153854 
	C372.431824,180.720703 368.550262,192.184891 353.000122,205.137634 
	C353.000122,199.517654 352.674957,194.446045 353.081390,189.433762 
	C353.604156,182.986313 351.490814,178.409683 345.146729,175.708145 
z"/>
<path fill="#C5C4C9" opacity="1.000000" stroke="none" 
	d="
M311.609009,333.650391 
	C312.280792,340.905518 307.480377,346.217255 304.024902,352.452728 
	C291.202118,352.788116 278.436493,352.788116 265.334595,352.788116 
	C265.334595,347.776306 265.334595,342.722321 265.334595,336.998535 
	C271.069397,336.998535 276.974365,336.998596 282.879333,336.998535 
	C289.686310,336.998474 296.511871,337.289246 303.291077,336.855225 
	C306.011505,336.681030 308.629883,334.913544 311.609009,333.650391 
z"/>
<path fill="#FAE696" opacity="1.000000" stroke="none" 
	d="
M352.990295,240.070877 
	C352.990295,237.596436 352.990295,235.613525 352.990295,233.312317 
	C358.238159,233.312317 363.304932,233.312317 368.692932,233.312317 
	C368.692932,243.575577 368.692932,253.972458 368.692932,264.690796 
	C363.756439,264.690796 358.689545,264.690796 352.990295,264.690796 
	C352.990295,256.735687 352.990295,248.649048 352.990295,240.070877 
z"/>
<path fill="#FAE696" opacity="1.000000" stroke="none" 
	d="
M264.990295,313.970764 
	C264.990295,310.841980 264.990295,308.200836 264.990295,305.278320 
	C275.636322,305.278320 286.032776,305.278320 296.720703,305.278320 
	C296.720703,310.304932 296.720703,315.371246 296.720703,320.725952 
	C286.355072,320.725952 275.958710,320.725952 264.990295,320.725952 
	C264.990295,318.657349 264.990295,316.557892 264.990295,313.970764 
z"/>
<path fill="#FCC276" opacity="1.000000" stroke="none" 
	d="
M144.996185,255.618500 
	C144.995514,251.016434 144.961761,246.872040 145.003250,242.728378 
	C145.071625,235.899597 147.870712,233.092560 154.651871,232.999756 
	C156.608307,232.972992 158.565414,232.995636 160.756897,232.995636 
	C160.756897,243.698029 160.756897,254.061905 160.756897,264.421051 
	C150.092590,266.374695 145.871353,264.132843 144.996185,255.618500 
z"/>
<path fill="#FAE696" opacity="1.000000" stroke="none" 
	d="
M431.141205,174.042053 
	C427.532623,177.515686 423.839844,178.070770 420.106445,175.219345 
	C417.184418,172.987625 416.235809,169.861893 417.498169,166.314270 
	C419.061462,161.920990 423.860138,159.861649 428.058990,161.677536 
	C432.813507,163.733734 434.029144,168.143539 431.141205,174.042053 
z"/>
<path fill="#000000" opacity="1.000000" stroke="none" 
	d="
M227.492065,232.997345 
	C226.330475,232.539841 225.163101,232.224884 224.966843,231.603302 
	C223.664490,227.478409 221.100479,224.912689 216.670273,225.080307 
	C211.941284,225.259262 209.735336,228.457947 208.745773,232.833191 
	C203.605209,232.833191 198.494720,232.833191 193.406769,232.833191 
	C192.096634,222.959793 201.472504,209.638016 215.884216,209.032990 
	C229.502243,208.461258 240.529465,218.889801 240.829529,232.998062 
	C236.529205,232.998062 232.232346,232.998062 227.492065,232.997345 
z"/>
<path fill="#000000" opacity="1.000000" stroke="none" 
	d="
M312.075775,235.664246 
	C295.542633,247.246490 278.395111,237.783356 274.120819,224.179825 
	C271.061676,214.443741 274.423248,204.065521 282.523529,197.907791 
	C291.057861,191.420090 301.361359,191.377884 311.599792,197.911621 
	C324.013062,210.278427 324.127319,224.578430 312.075775,235.664246 
M292.258911,223.386932 
	C297.813141,226.006653 302.258362,224.777969 304.302704,220.057953 
	C306.121735,215.858170 304.068359,211.088364 299.671478,209.520874 
	C296.124817,208.256485 293.005829,209.217834 290.788666,212.129471 
	C287.960114,215.843979 288.470520,219.540512 292.258911,223.386932 
z"/>
<path fill="#00D6DE" opacity="1.000000" stroke="none" 
	d="
M291.954041,223.144196 
	C288.470520,219.540512 287.960114,215.843979 290.788666,212.129471 
	C293.005829,209.217834 296.124817,208.256485 299.671478,209.520874 
	C304.068359,211.088364 306.121735,215.858170 304.302704,220.057953 
	C302.258362,224.777969 297.813141,226.006653 291.954041,223.144196 
z"/>
</svg>