<svg version="1.1" id="Layer_1" xmlns="http://www.w3.org/2000/svg" xmlns:xlink="http://www.w3.org/1999/xlink" x="0px" y="0px"
	 width="100%" viewBox="0 0 512 512" enable-background="new 0 0 512 512" xml:space="preserve">
<path fill="#000000" opacity="1.000000" stroke="none" 
	d="
M1.000000,201.000000 
	C1.000000,134.000000 1.000000,67.500000 1.000000,1.000000 
	C171.666672,1.000000 342.333344,1.000000 513.000000,1.000000 
	C513.000000,171.666672 513.000000,342.333344 513.000000,513.000000 
	C342.333344,513.000000 171.666672,513.000000 1.000000,513.000000 
	C1.000000,409.166656 1.000000,305.333344 1.000000,201.000000 
M180.044342,38.116360 
	C179.695358,42.500172 179.035767,46.886333 179.068878,51.267254 
	C179.120941,58.153767 179.639694,65.036743 179.044357,71.986404 
	C177.553802,71.991547 176.056580,72.091354 174.573715,71.987068 
	C160.815826,71.019493 151.769287,80.839462 152.926437,93.565376 
	C153.359283,98.325645 152.945740,103.162865 151.991516,107.995964 
	C143.107529,108.330254 134.225327,108.866104 125.339066,108.944740 
	C115.551003,109.031380 106.464592,112.202606 98.168694,116.535080 
	C79.840324,126.106926 67.333519,141.122726 59.962498,160.988480 
	C55.974907,160.992432 51.987301,160.992035 47.999722,161.001129 
	C36.730263,161.026840 29.015699,168.833130 29.002653,180.233459 
	C28.993719,188.042511 28.996622,195.851593 29.001854,203.660660 
	C29.007936,212.738388 34.711872,220.302612 43.666916,221.902771 
	C49.290066,222.907562 55.128368,222.708282 60.977051,223.804123 
	C65.688492,236.348083 72.307854,247.597244 83.176521,256.759369 
	C84.389854,257.849182 85.546982,259.010345 86.825584,260.017273 
	C95.471046,266.825592 105.496117,270.755432 115.096436,274.004211 
	C114.205132,274.333191 113.332497,274.880829 112.419754,274.958771 
	C95.792732,276.378815 85.539925,285.744904 79.263962,301.211060 
	C77.009132,302.477051 74.662521,303.604828 72.514374,305.031464 
	C58.609871,314.265625 49.827713,327.847137 42.089466,342.062653 
	C33.490398,357.859589 28.673777,374.970398 25.876087,392.747772 
	C23.788979,406.009918 22.826954,419.126953 25.984432,432.334076 
	C28.527359,442.970703 36.754593,451.129608 46.939289,451.909241 
	C57.150051,452.690887 63.861309,452.328308 70.494156,437.913239 
	C72.413422,433.742157 73.541451,429.206970 75.695030,425.188019 
	C79.360085,436.405182 86.498360,445.319855 95.380981,452.611023 
	C100.227982,456.589569 106.360657,459.001801 111.978210,463.036804 
	C111.985649,468.863373 111.669846,474.712341 112.071548,480.511597 
	C112.785294,490.815369 118.965157,497.655304 128.053223,497.783142 
	C165.003494,498.302795 201.965454,498.047791 238.922836,497.960449 
	C246.601685,497.942291 254.740158,489.923889 254.947693,482.287201 
	C255.123749,475.807678 254.854965,469.316071 255.222580,462.221680 
	C260.127716,459.782745 265.032898,457.343811 270.650055,455.212128 
	C271.274231,460.835480 274.383789,464.939087 278.900574,467.955109 
	C293.184998,477.493378 307.551575,486.908630 321.880066,496.380981 
	C327.852631,500.329376 334.197205,501.279816 341.794312,498.998230 
	C347.435883,501.548096 352.487213,499.178406 356.966583,496.371460 
	C370.578064,487.842255 383.750458,478.605438 397.448700,470.224182 
	C404.848022,465.696930 408.479767,459.678619 410.166656,451.292542 
	C415.440460,425.075073 421.398376,398.996033 426.912231,372.825653 
	C429.000610,362.913666 425.147156,355.739441 415.608826,351.263611 
	C396.814270,342.444336 377.872101,333.934937 359.169037,324.927734 
	C352.590210,321.759460 346.225739,319.659851 338.125641,322.018799 
	C329.933136,320.796539 322.964355,324.040710 316.017395,327.320526 
	C315.010925,325.877319 314.040192,324.407593 312.992218,322.995178 
	C306.056030,313.646942 298.256104,305.304657 286.999084,300.153442 
	C284.472107,295.738495 282.451294,290.919617 279.315613,286.990448 
	C272.189941,278.061615 261.889984,275.274231 251.428314,273.176025 
	C254.381195,272.451141 257.457886,272.043274 260.265839,270.947144 
	C273.297607,265.859894 284.792633,258.596863 293.391510,247.226685 
	C298.970612,239.849457 304.001221,232.240509 307.051453,223.016846 
	C310.871490,223.010788 314.701202,223.178452 318.509674,222.965469 
	C329.173859,222.369156 338.795807,215.674774 338.084290,203.154984 
	C337.632629,195.208359 338.004181,187.215179 337.998535,179.242889 
	C337.992828,171.151489 333.568207,163.987106 325.803467,162.251526 
	C319.474121,160.836807 312.720367,161.321075 306.013947,160.192383 
	C301.058075,144.278702 291.492493,131.738144 278.082611,122.007072 
	C268.253571,114.874496 257.175873,110.528168 245.254288,109.159599 
	C235.277313,108.014259 225.139435,108.270592 215.015533,106.983368 
	C215.010345,102.151161 215.363739,97.286339 214.927658,92.493332 
	C213.922211,81.442741 210.066406,75.169327 199.497177,72.387512 
	C195.585693,71.358017 191.224167,72.038422 187.029160,71.092674 
	C187.325836,70.536201 187.844421,69.995270 187.884644,69.420845 
	C188.258255,64.082619 188.893814,58.730370 188.765915,53.398682 
	C188.643005,48.275406 187.704773,43.171684 187.755005,37.765224 
	C189.931870,35.894142 192.688950,34.395195 194.173721,32.080212 
	C198.168930,25.851027 195.656616,18.097200 189.124863,15.039527 
	C182.002640,11.705445 174.643082,14.894560 172.007523,22.457008 
	C169.798630,28.795099 173.481323,35.541882 180.044342,38.116360 
M489.202667,97.281593 
	C489.434143,96.860352 489.929199,96.388489 489.859436,96.025101 
	C485.910858,75.462677 473.127991,61.647102 455.068176,52.735710 
	C439.459503,45.033821 422.660217,43.174080 405.351501,45.951218 
	C383.880005,49.396263 366.191162,58.954231 354.783081,77.895683 
	C346.836426,91.089966 345.211060,105.340492 350.948669,120.785255 
	C353.101593,129.095169 358.153290,135.493103 364.510651,140.938324 
	C367.924835,143.862656 367.619049,146.917679 365.228455,150.049530 
	C363.132935,152.794815 360.448273,155.122070 358.577515,157.994568 
	C357.563171,159.552048 356.845428,162.323547 357.581635,163.695175 
	C358.236053,164.914429 361.385529,165.872375 362.906677,165.365128 
	C370.159882,162.946533 377.218933,159.950562 384.386780,157.266052 
	C385.415558,156.880737 386.803009,156.690292 387.784332,157.055267 
	C403.210052,162.792404 419.123169,163.801941 435.125946,160.973129 
	C458.453918,156.849457 476.246704,144.448517 486.527496,122.833824 
	C490.155487,115.206230 491.658142,106.615585 489.202667,97.281593 
z"/>
<path fill="#D1DAFE" opacity="1.000000" stroke="none" 
	d="
M111.913513,462.120422 
	C106.360657,459.001801 100.227982,456.589569 95.380981,452.611023 
	C86.498360,445.319855 79.360085,436.405182 75.353531,424.602905 
	C73.995239,416.492065 71.980316,408.941254 72.168922,401.445862 
	C72.564491,385.725067 73.986046,370.022858 75.233086,354.332642 
	C76.649216,336.514923 78.334938,318.718597 79.903458,300.912994 
	C85.539925,285.744904 95.792732,276.378815 112.419754,274.958771 
	C113.332497,274.880829 114.205132,274.333191 115.958267,273.938934 
	C161.578384,273.871796 206.336655,273.869965 251.094940,273.868134 
	C261.889984,275.274231 272.189941,278.061615 279.315613,286.990448 
	C282.451294,290.919617 284.472107,295.738495 287.032227,300.947449 
	C288.369324,314.498718 289.673309,327.255981 290.736755,340.263000 
	C279.393066,346.148926 268.289948,351.785126 257.113403,356.949707 
	C255.975952,343.038818 254.748169,329.609497 253.933990,316.155090 
	C253.636902,311.245178 251.800491,309.806427 246.882156,309.850983 
	C220.229538,310.092316 193.573608,309.965149 166.918808,309.965454 
	C150.925934,309.965668 134.932358,310.046509 118.940727,309.906097 
	C115.365143,309.874756 113.828949,310.977478 113.727402,314.687256 
	C113.595596,319.502380 112.914680,324.300598 112.532143,329.111053 
	C110.671928,352.503265 108.440018,375.874817 107.108307,399.297394 
	C106.020409,418.431549 119.544930,431.961487 138.703735,431.989349 
	C168.690323,432.032959 198.677048,432.029236 228.663651,431.989563 
	C245.492599,431.967285 257.454193,421.783386 260.446594,405.541321 
	C262.299438,413.598846 264.104767,421.328827 265.574799,429.122040 
	C267.190186,437.685974 268.496857,446.308105 269.938049,454.904877 
	C265.032898,457.343811 260.127716,459.782745 254.609818,462.546265 
	C241.186127,467.367004 227.897415,467.115143 214.583405,467.040039 
	C190.287048,466.902985 165.987823,466.841553 141.692978,467.076538 
	C131.405289,467.176025 121.511040,465.752930 111.913513,462.120422 
z"/>
<path fill="#D1DAFE" opacity="1.000000" stroke="none" 
	d="
M82.919716,256.136871 
	C72.307854,247.597244 65.688492,236.348083 60.991753,223.019379 
	C59.996605,213.183914 58.133072,204.127579 58.192326,195.083862 
	C58.266922,183.699081 59.913216,172.324570 60.881363,160.945633 
	C67.333519,141.122726 79.840324,126.106926 98.168694,116.535080 
	C106.464592,112.202606 115.551003,109.031380 125.339066,108.944740 
	C134.225327,108.866104 143.107529,108.330254 152.734192,108.307930 
	C173.088760,108.712990 192.700623,108.819672 212.312607,108.856476 
	C213.232071,108.858192 214.152710,108.237221 215.072800,107.906250 
	C225.139435,108.270592 235.277313,108.014259 245.254288,109.159599 
	C257.175873,110.528168 268.253571,114.874496 278.082611,122.007072 
	C291.492493,131.738144 301.058075,144.278702 306.066132,160.966431 
	C306.890747,167.410156 307.663177,173.079834 308.201721,179.070755 
	C302.836517,197.203369 291.841034,210.901138 277.587402,222.189972 
	C257.251648,238.295898 233.832245,248.136993 208.817245,253.805054 
	C193.508759,257.273743 177.800049,259.298340 162.160629,260.878326 
	C150.467987,262.059540 138.543411,262.303497 126.822319,261.501160 
	C112.134537,260.495728 97.549248,257.993225 82.919716,256.136871 
M100.025368,211.365936 
	C109.750694,233.225983 126.719269,244.410233 150.496506,244.774933 
	C172.636459,245.114517 194.786285,244.932678 216.930344,244.777405 
	C221.383270,244.746170 225.942368,244.262054 230.260834,243.204254 
	C256.300964,236.825729 273.684692,212.504395 270.840179,186.769913 
	C267.822449,159.468170 245.734039,139.289398 218.204590,139.049103 
	C195.228729,138.848557 172.247635,138.816055 149.272507,139.057266 
	C111.783577,139.450836 87.064400,175.348709 100.025368,211.365936 
z"/>
<path fill="#FBAD3E" opacity="1.000000" stroke="none" 
	d="
M270.294067,455.058502 
	C268.496857,446.308105 267.190186,437.685974 265.574799,429.122040 
	C264.104767,421.328827 262.299438,413.598846 260.397034,405.096283 
	C258.204102,394.982391 256.479462,385.559296 254.233749,376.262024 
	C252.585800,369.439545 252.977753,363.198578 257.186829,357.421326 
	C268.289948,351.785126 279.393066,346.148926 291.099915,340.226868 
	C299.868652,335.969391 308.033661,331.997833 316.198669,328.026276 
	C322.964355,324.040710 329.933136,320.796539 338.765137,322.373871 
	C339.786407,323.044067 340.122559,323.456146 340.556519,323.660400 
	C361.760254,333.640778 383.001953,343.541229 404.168335,353.600159 
	C411.978119,357.311584 415.292297,364.569550 413.514893,372.961975 
	C407.952271,399.227722 402.412140,425.498199 396.845215,451.763031 
	C395.406097,458.552856 393.310211,464.895172 386.658569,468.638245 
	C382.465912,470.997620 378.449951,473.685059 374.442810,476.357422 
	C363.265320,483.811737 352.133698,491.334900 340.983948,498.830872 
	C334.197205,501.279816 327.852631,500.329376 321.880066,496.380981 
	C307.551575,486.908630 293.184998,477.493378 278.900574,467.955109 
	C274.383789,464.939087 271.274231,460.835480 270.294067,455.058502 
M285.159607,435.811096 
	C286.036591,439.521454 287.308014,443.191711 287.690033,446.952332 
	C288.160370,451.582855 290.466431,454.450256 294.234436,456.860107 
	C305.717194,464.203918 317.099030,471.707855 328.439117,479.270966 
	C331.927032,481.597229 335.055359,481.625488 338.546997,479.302521 
	C350.310211,471.476562 362.264282,463.931366 373.881561,455.897308 
	C376.208710,454.287933 378.307343,451.210022 378.929077,448.452484 
	C383.960114,426.138367 388.569183,403.729553 393.398102,381.369324 
	C396.404480,367.448364 396.322113,367.177612 382.998596,362.185059 
	C382.696411,362.071808 382.342194,362.097290 381.572327,361.511292 
	C367.599792,354.958893 353.553467,348.556976 339.699554,341.762695 
	C335.519196,339.712585 331.821014,339.727142 327.838806,341.633759 
	C323.345276,343.785126 318.847595,345.928192 314.337952,348.045563 
	C301.714355,353.972626 289.076263,359.868927 276.460083,365.811737 
	C272.596954,367.631439 271.284363,370.557098 272.391907,374.801239 
	C273.603058,379.442108 274.472931,384.173065 275.456207,388.872162 
	C278.676392,404.261566 281.880524,419.654358 285.159607,435.811096 
z"/>
<path fill="#AEC46F" opacity="1.000000" stroke="none" 
	d="
M350.967407,120.017235 
	C345.211060,105.340492 346.836426,91.089966 354.783081,77.895683 
	C366.191162,58.954231 383.880005,49.396263 405.351501,45.951218 
	C422.660217,43.174080 439.459503,45.033821 455.068176,52.735710 
	C473.127991,61.647102 485.910858,75.462677 489.859436,96.025101 
	C489.929199,96.388489 489.434143,96.860352 488.780762,97.755127 
	C477.795898,106.452599 466.579498,113.467911 453.429504,116.700317 
	C446.729431,103.725021 430.778931,95.510910 415.413239,97.274422 
	C402.359772,98.772552 391.482513,104.098145 384.978973,116.575089 
	C407.981842,106.557167 430.618622,106.644135 452.764465,117.671532 
	C426.413635,126.144119 399.888092,128.227356 372.896118,123.984398 
	C365.559937,122.831200 358.275574,121.348633 350.967407,120.017235 
M365.883392,95.061836 
	C374.229218,91.370689 382.313263,86.838219 390.969604,84.145157 
	C417.620300,75.853828 443.195435,79.589088 467.585754,92.734749 
	C469.181305,93.594696 470.835175,94.346458 472.461914,95.148544 
	C472.474274,93.395081 471.977997,92.556252 471.385132,91.792412 
	C455.488098,71.309982 423.962036,62.354404 397.603271,71.091301 
	C384.248627,75.517830 372.421112,82.316444 364.378052,94.995895 
	C364.433716,95.235741 364.489349,95.475594 364.545013,95.715454 
	C364.757751,95.542007 364.970490,95.368568 365.883392,95.061836 
z"/>
<path fill="#8A9BEA" opacity="1.000000" stroke="none" 
	d="
M79.583710,301.062012 
	C78.334938,318.718597 76.649216,336.514923 75.233086,354.332642 
	C73.986046,370.022858 72.564491,385.725067 72.168922,401.445862 
	C71.980316,408.941254 73.995239,416.492065 75.022125,424.428253 
	C73.541451,429.206970 72.413422,433.742157 70.494156,437.913239 
	C63.861309,452.328308 57.150051,452.690887 46.939289,451.909241 
	C36.754593,451.129608 28.527359,442.970703 25.984432,432.334076 
	C22.826954,419.126953 23.788979,406.009918 25.876087,392.747772 
	C28.673777,374.970398 33.490398,357.859589 42.089466,342.062653 
	C49.827713,327.847137 58.609871,314.265625 72.514374,305.031464 
	C74.662521,303.604828 77.009132,302.477051 79.583710,301.062012 
z"/>
<path fill="#8B9CEA" opacity="1.000000" stroke="none" 
	d="
M83.048119,256.448120 
	C97.549248,257.993225 112.134537,260.495728 126.822319,261.501160 
	C138.543411,262.303497 150.467987,262.059540 162.160629,260.878326 
	C177.800049,259.298340 193.508759,257.273743 208.817245,253.805054 
	C233.832245,248.136993 257.251648,238.295898 277.587402,222.189972 
	C291.841034,210.901138 302.836517,197.203369 308.526062,179.275360 
	C309.344910,179.746017 309.819489,180.327820 309.834686,180.921402 
	C310.197449,195.109924 310.368713,209.287140 306.140350,223.074478 
	C304.001221,232.240509 298.970612,239.849457 293.391510,247.226685 
	C284.792633,258.596863 273.297607,265.859894 260.265839,270.947144 
	C257.457886,272.043274 254.381195,272.451141 251.261627,273.522095 
	C206.336655,273.869965 161.578384,273.871796 116.363342,273.870972 
	C105.496117,270.755432 95.471046,266.825592 86.825584,260.017273 
	C85.546982,259.010345 84.389854,257.849182 83.048119,256.448120 
z"/>
<path fill="#63804E" opacity="1.000000" stroke="none" 
	d="
M453.515350,117.065262 
	C466.579498,113.467911 477.795898,106.452599 488.675598,98.110474 
	C491.658142,106.615585 490.155487,115.206230 486.527496,122.833824 
	C476.246704,144.448517 458.453918,156.849457 435.125946,160.973129 
	C419.123169,163.801941 403.210052,162.792404 387.784332,157.055267 
	C386.803009,156.690292 385.415558,156.880737 384.386780,157.266052 
	C377.218933,159.950562 370.159882,162.946533 362.906677,165.365128 
	C361.385529,165.872375 358.236053,164.914429 357.581635,163.695175 
	C356.845428,162.323547 357.563171,159.552048 358.577515,157.994568 
	C360.448273,155.122070 363.132935,152.794815 365.228455,150.049530 
	C367.619049,146.917679 367.924835,143.862656 364.510651,140.938324 
	C358.153290,135.493103 353.101593,129.095169 350.958038,120.401245 
	C358.275574,121.348633 365.559937,122.831200 372.896118,123.984398 
	C399.888092,128.227356 426.413635,126.144119 452.905579,117.589554 
	C453.366791,117.355820 453.515350,117.065262 453.515350,117.065262 
M431.001709,132.380234 
	C419.097748,126.071739 405.697968,128.971085 401.149414,139.488373 
	C413.185699,134.010208 424.925354,134.321533 436.677124,139.329269 
	C437.135651,138.657547 437.594177,137.985809 438.052704,137.314072 
	C435.899719,135.814636 433.746735,134.315201 431.001709,132.380234 
z"/>
<path fill="#8A9BEA" opacity="1.000000" stroke="none" 
	d="
M111.945862,462.578613 
	C121.511040,465.752930 131.405289,467.176025 141.692978,467.076538 
	C165.987823,466.841553 190.287048,466.902985 214.583405,467.040039 
	C227.897415,467.115143 241.186127,467.367004 254.390045,462.850342 
	C254.854965,469.316071 255.123749,475.807678 254.947693,482.287201 
	C254.740158,489.923889 246.601685,497.942291 238.922836,497.960449 
	C201.965454,498.047791 165.003494,498.302795 128.053223,497.783142 
	C118.965157,497.655304 112.785294,490.815369 112.071548,480.511597 
	C111.669846,474.712341 111.985649,468.863373 111.945862,462.578613 
z"/>
<path fill="#FA990E" opacity="1.000000" stroke="none" 
	d="
M341.389130,498.914551 
	C352.133698,491.334900 363.265320,483.811737 374.442810,476.357422 
	C378.449951,473.685059 382.465912,470.997620 386.658569,468.638245 
	C393.310211,464.895172 395.406097,458.552856 396.845215,451.763031 
	C402.412140,425.498199 407.952271,399.227722 413.514893,372.961975 
	C415.292297,364.569550 411.978119,357.311584 404.168335,353.600159 
	C383.001953,343.541229 361.760254,333.640778 340.556519,323.660400 
	C340.122559,323.456146 339.786407,323.044067 339.221375,322.442688 
	C346.225739,319.659851 352.590210,321.759460 359.169037,324.927734 
	C377.872101,333.934937 396.814270,342.444336 415.608826,351.263611 
	C425.147156,355.739441 429.000610,362.913666 426.912231,372.825653 
	C421.398376,398.996033 415.440460,425.075073 410.166656,451.292542 
	C408.479767,459.678619 404.848022,465.696930 397.448700,470.224182 
	C383.750458,478.605438 370.578064,487.842255 356.966583,496.371460 
	C352.487213,499.178406 347.435883,501.548096 341.389130,498.914551 
z"/>
<path fill="#436AC4" opacity="1.000000" stroke="none" 
	d="
M215.044159,107.444809 
	C214.152710,108.237221 213.232071,108.858192 212.312607,108.856476 
	C192.700623,108.819672 173.088760,108.712990 153.197495,108.292450 
	C152.945740,103.162865 153.359283,98.325645 152.926437,93.565376 
	C151.769287,80.839462 160.815826,71.019493 174.573715,71.987068 
	C176.056580,72.091354 177.553802,71.991547 179.845261,72.087173 
	C182.786743,72.104973 184.927307,72.021988 187.067886,71.939003 
	C191.224167,72.038422 195.585693,71.358017 199.497177,72.387512 
	C210.066406,75.169327 213.922211,81.442741 214.927658,92.493332 
	C215.363739,97.286339 215.010345,102.151161 215.044159,107.444809 
z"/>
<path fill="#4269C4" opacity="1.000000" stroke="none" 
	d="
M60.421928,160.967056 
	C59.913216,172.324570 58.266922,183.699081 58.192326,195.083862 
	C58.133072,204.127579 59.996605,213.183914 60.938297,222.641907 
	C55.128368,222.708282 49.290066,222.907562 43.666916,221.902771 
	C34.711872,220.302612 29.007936,212.738388 29.001854,203.660660 
	C28.996622,195.851593 28.993719,188.042511 29.002653,180.233459 
	C29.015699,168.833130 36.730263,161.026840 47.999722,161.001129 
	C51.987301,160.992035 55.974907,160.992432 60.421928,160.967056 
z"/>
<path fill="#4269C4" opacity="1.000000" stroke="none" 
	d="
M306.595886,223.045654 
	C310.368713,209.287140 310.197449,195.109924 309.834686,180.921402 
	C309.819489,180.327820 309.344910,179.746017 308.759979,178.954132 
	C307.663177,173.079834 306.890747,167.410156 306.136536,161.351883 
	C312.720367,161.321075 319.474121,160.836807 325.803467,162.251526 
	C333.568207,163.987106 337.992828,171.151489 337.998535,179.242889 
	C338.004181,187.215179 337.632629,195.208359 338.084290,203.154984 
	C338.795807,215.674774 329.173859,222.369156 318.509674,222.965469 
	C314.701202,223.178452 310.871490,223.010788 306.595886,223.045654 
z"/>
<path fill="#8B9CE9" opacity="1.000000" stroke="none" 
	d="
M316.108032,327.673401 
	C308.033661,331.997833 299.868652,335.969391 291.340454,339.977112 
	C289.673309,327.255981 288.369324,314.498718 287.080231,301.324219 
	C298.256104,305.304657 306.056030,313.646942 312.992218,322.995178 
	C314.040192,324.407593 315.010925,325.877319 316.108032,327.673401 
z"/>
<path fill="#B53017" opacity="1.000000" stroke="none" 
	d="
M180.103851,37.289726 
	C173.481323,35.541882 169.798630,28.795099 172.007523,22.457008 
	C174.643082,14.894560 182.002640,11.705445 189.124863,15.039527 
	C195.656616,18.097200 198.168930,25.851027 194.173721,32.080212 
	C192.688950,34.395195 189.931870,35.894142 187.219940,37.676044 
	C184.491211,37.487820 182.297531,37.388771 180.103851,37.289726 
z"/>
<path fill="#D0D9FC" opacity="1.000000" stroke="none" 
	d="
M180.074097,37.703041 
	C182.297531,37.388771 184.491211,37.487820 186.904846,37.823120 
	C187.704773,43.171684 188.643005,48.275406 188.765915,53.398682 
	C188.893814,58.730370 188.258255,64.082619 187.884644,69.420845 
	C187.844421,69.995270 187.325836,70.536201 187.048523,71.515839 
	C184.927307,72.021988 182.786743,72.104973 180.303497,72.054581 
	C179.639694,65.036743 179.120941,58.153767 179.068878,51.267254 
	C179.035767,46.886333 179.695358,42.500172 180.074097,37.703041 
z"/>
<path fill="#436AC4" opacity="1.000000" stroke="none" 
	d="
M257.113403,356.949707 
	C252.977753,363.198578 252.585800,369.439545 254.233749,376.262024 
	C256.479462,385.559296 258.204102,394.982391 260.201721,404.796631 
	C257.454193,421.783386 245.492599,431.967285 228.663651,431.989563 
	C198.677048,432.029236 168.690323,432.032959 138.703735,431.989349 
	C119.544930,431.961487 106.020409,418.431549 107.108307,399.297394 
	C108.440018,375.874817 110.671928,352.503265 112.532143,329.111053 
	C112.914680,324.300598 113.595596,319.502380 113.727402,314.687256 
	C113.828949,310.977478 115.365143,309.874756 118.940727,309.906097 
	C134.932358,310.046509 150.925934,309.965668 166.918808,309.965454 
	C193.573608,309.965149 220.229538,310.092316 246.882156,309.850983 
	C251.800491,309.806427 253.636902,311.245178 253.933990,316.155090 
	C254.748169,329.609497 255.975952,343.038818 257.113403,356.949707 
M179.622849,395.201447 
	C179.337097,395.370850 179.114563,395.601318 178.427994,396.345215 
	C174.425934,399.631653 172.763092,403.681396 174.973862,408.608307 
	C176.883133,412.863281 180.444778,414.530792 185.057968,414.188324 
	C189.681671,413.845032 191.932388,410.766602 194.287521,406.600708 
	C196.504211,401.565613 195.294922,396.153625 190.943481,393.745117 
	C187.176895,391.660309 183.150803,390.572876 180.003052,395.020569 
	C180.003052,395.020569 180.072403,395.021179 179.622849,395.201447 
M145.520767,395.908752 
	C141.440414,398.416626 139.441742,401.975006 140.552765,406.758820 
	C141.544952,411.030884 144.339798,413.684265 148.764664,414.250641 
	C154.414536,414.973846 157.693604,411.819946 160.490921,406.614197 
	C162.843689,401.640594 161.544983,396.679047 157.129745,393.773315 
	C153.027084,391.073273 149.105011,391.685577 145.520767,395.908752 
M188.499969,385.235107 
	C199.661987,385.234711 210.824173,385.271851 221.985962,385.221710 
	C230.504654,385.183441 233.733276,381.941071 233.769501,373.380920 
	C233.818848,361.719330 233.812912,350.057281 233.770401,338.395630 
	C233.738586,329.663330 230.303986,326.143982 221.727295,326.132538 
	C196.404587,326.098785 171.081787,326.097168 145.759079,326.135406 
	C137.667435,326.147644 134.082397,329.696014 134.050064,337.651703 
	C134.001328,349.646484 134.011307,361.641663 134.044937,373.636566 
	C134.068054,381.885498 137.303040,385.183472 145.517563,385.216492 
	C159.511505,385.272705 173.505798,385.234070 188.499969,385.235107 
M211.507599,412.173035 
	C215.231476,415.009644 219.630508,415.532715 222.926880,412.597595 
	C225.297806,410.486389 227.064941,406.620300 227.270386,403.419495 
	C227.543045,399.171326 224.449112,396.050507 220.122665,395.069305 
	C215.681213,394.062012 211.807678,395.377258 209.408798,399.408325 
	C206.819458,403.759430 207.403824,407.943481 211.507599,412.173035 
z"/>
<path fill="#4369C4" opacity="1.000000" stroke="none" 
	d="
M99.910400,210.993622 
	C87.064400,175.348709 111.783577,139.450836 149.272507,139.057266 
	C172.247635,138.816055 195.228729,138.848557 218.204590,139.049103 
	C245.734039,139.289398 267.822449,159.468170 270.840179,186.769913 
	C273.684692,212.504395 256.300964,236.825729 230.260834,243.204254 
	C225.942368,244.262054 221.383270,244.746170 216.930344,244.777405 
	C194.786285,244.932678 172.636459,245.114517 150.496506,244.774933 
	C126.719269,244.410233 109.750694,233.225983 99.910400,210.993622 
M132.998550,177.092896 
	C133.985611,179.690689 134.548264,182.570084 136.046799,184.828491 
	C139.311920,189.749237 144.843338,189.633163 148.405045,184.916992 
	C152.674393,179.263809 152.708389,169.088181 148.476913,163.407593 
	C145.120697,158.902008 139.297424,158.387070 136.514114,163.213486 
	C134.342941,166.978424 134.076630,171.841873 132.998550,177.092896 
M232.924759,182.148254 
	C235.407913,175.929321 235.284088,169.818283 231.708771,164.076401 
	C228.276138,158.563705 222.537735,158.431183 218.771317,163.728546 
	C214.998337,169.035172 215.161346,174.942169 216.864349,180.863403 
	C217.976685,184.730927 220.301483,187.943375 224.562027,188.411179 
	C228.518951,188.845642 230.889923,186.119003 232.924759,182.148254 
M171.703751,218.966782 
	C166.098297,217.156494 160.492844,215.346207 154.849594,213.523727 
	C157.689270,222.105560 172.836441,230.109528 186.778412,229.045532 
	C197.648743,228.215958 210.272903,220.697556 212.234940,213.016037 
	C199.507507,219.400192 186.393784,221.804367 171.703751,218.966782 
z"/>
<path fill="#FA990F" opacity="1.000000" stroke="none" 
	d="
M285.090820,435.045837 
	C281.880524,419.654358 278.676392,404.261566 275.456207,388.872162 
	C274.472931,384.173065 273.603058,379.442108 272.391907,374.801239 
	C271.284363,370.557098 272.596954,367.631439 276.460083,365.811737 
	C289.076263,359.868927 301.714355,353.972626 314.337952,348.045563 
	C318.847595,345.928192 323.345276,343.785126 327.838806,341.633759 
	C331.821014,339.727142 335.519196,339.712585 339.699554,341.762695 
	C353.553467,348.556976 367.599792,354.958893 381.857727,362.190857 
	C384.464569,374.987335 382.169128,386.561462 378.165436,397.980164 
	C369.306793,423.245361 343.057495,441.841919 316.348389,442.065765 
	C305.301331,442.158356 295.079224,439.299255 285.090820,435.045837 
M318.715942,413.027618 
	C315.997955,411.778046 313.279968,410.528503 310.562012,409.278931 
	C310.209045,409.662323 309.856110,410.045746 309.503174,410.429138 
	C312.332184,415.645355 315.073059,420.912079 318.020325,426.060577 
	C320.086884,429.670593 323.114746,430.090485 326.471191,427.822052 
	C338.369537,419.780701 348.410980,409.990967 355.064606,397.072449 
	C355.831299,395.583893 356.387543,393.986938 357.299652,391.829224 
	C355.697418,392.213959 355.055542,392.315887 354.448792,392.521515 
	C342.832428,396.458160 333.271576,403.540619 324.659485,412.055817 
	C323.138367,413.559784 321.843567,415.631378 318.715942,413.027618 
z"/>
<path fill="#E0860E" opacity="1.000000" stroke="none" 
	d="
M285.125214,435.428467 
	C295.079224,439.299255 305.301331,442.158356 316.348389,442.065765 
	C343.057495,441.841919 369.306793,423.245361 378.165436,397.980164 
	C382.169128,386.561462 384.464569,374.987335 382.077698,362.464233 
	C382.342194,362.097290 382.696411,362.071808 382.998596,362.185059 
	C396.322113,367.177612 396.404480,367.448364 393.398102,381.369324 
	C388.569183,403.729553 383.960114,426.138367 378.929077,448.452484 
	C378.307343,451.210022 376.208710,454.287933 373.881561,455.897308 
	C362.264282,463.931366 350.310211,471.476562 338.546997,479.302521 
	C335.055359,481.625488 331.927032,481.597229 328.439117,479.270966 
	C317.099030,471.707855 305.717194,464.203918 294.234436,456.860107 
	C290.466431,454.450256 288.160370,451.582855 287.690033,446.952332 
	C287.308014,443.191711 286.036591,439.521454 285.125214,435.428467 
z"/>
<path fill="#FDFDFB" opacity="1.000000" stroke="none" 
	d="
M364.728424,94.735779 
	C372.421112,82.316444 384.248627,75.517830 397.603271,71.091301 
	C423.962036,62.354404 455.488098,71.309982 471.385132,91.792412 
	C471.977997,92.556252 472.474274,93.395081 472.461914,95.148544 
	C470.835175,94.346458 469.181305,93.594696 467.585754,92.734749 
	C443.195435,79.589088 417.620300,75.853828 390.969604,84.145157 
	C382.313263,86.838219 374.229218,91.370689 365.420166,95.013084 
	C364.956940,94.964333 364.728424,94.735779 364.728424,94.735779 
z"/>
<path fill="#FCFDFA" opacity="1.000000" stroke="none" 
	d="
M453.225708,117.437798 
	C430.618622,106.644135 407.981842,106.557167 384.978973,116.575089 
	C391.482513,104.098145 402.359772,98.772552 415.413239,97.274422 
	C430.778931,95.510910 446.729431,103.725021 453.429504,116.700317 
	C453.515350,117.065262 453.366791,117.355820 453.225708,117.437798 
z"/>
<path fill="#FDFDFB" opacity="1.000000" stroke="none" 
	d="
M365.070068,95.079727 
	C364.970490,95.368568 364.757751,95.542007 364.545013,95.715446 
	C364.489349,95.475594 364.433716,95.235741 364.553223,94.865837 
	C364.728424,94.735779 364.956940,94.964333 365.070068,95.079727 
z"/>
<path fill="#F5F7F4" opacity="1.000000" stroke="none" 
	d="
M431.297729,132.597992 
	C433.746735,134.315201 435.899719,135.814636 438.052704,137.314072 
	C437.594177,137.985809 437.135651,138.657547 436.677124,139.329269 
	C424.925354,134.321533 413.185699,134.010208 401.149414,139.488373 
	C405.697968,128.971085 419.097748,126.071739 431.297729,132.597992 
z"/>
<path fill="#FEFEFF" opacity="1.000000" stroke="none" 
	d="
M187.999969,385.235199 
	C173.505798,385.234070 159.511505,385.272705 145.517563,385.216492 
	C137.303040,385.183472 134.068054,381.885498 134.044937,373.636566 
	C134.011307,361.641663 134.001328,349.646484 134.050064,337.651703 
	C134.082397,329.696014 137.667435,326.147644 145.759079,326.135406 
	C171.081787,326.097168 196.404587,326.098785 221.727295,326.132538 
	C230.303986,326.143982 233.738586,329.663330 233.770401,338.395630 
	C233.812912,350.057281 233.818848,361.719330 233.769501,373.380920 
	C233.733276,381.941071 230.504654,385.183441 221.985962,385.221710 
	C210.824173,385.271851 199.661987,385.234711 187.999969,385.235199 
z"/>
<path fill="#F6AB41" opacity="1.000000" stroke="none" 
	d="
M159.914322,407.101807 
	C157.693604,411.819946 154.414536,414.973846 148.764664,414.250641 
	C144.339798,413.684265 141.544952,411.030884 140.552765,406.758820 
	C139.441742,401.975006 141.440414,398.416626 146.196732,395.587769 
	C155.909790,394.228546 159.851120,397.805237 159.914322,407.101807 
z"/>
<path fill="#B2311A" opacity="1.000000" stroke="none" 
	d="
M211.207123,411.917084 
	C207.403824,407.943481 206.819458,403.759430 209.408798,399.408325 
	C211.807678,395.377258 215.681213,394.062012 220.122665,395.069305 
	C224.449112,396.050507 227.543045,399.171326 227.270386,403.419495 
	C227.064941,406.620300 225.297806,410.486389 222.926880,412.597595 
	C219.630508,415.532715 215.231476,415.009644 211.207123,411.917084 
z"/>
<path fill="#ABC170" opacity="1.000000" stroke="none" 
	d="
M193.632767,406.989044 
	C191.932388,410.766602 189.681671,413.845032 185.057968,414.188324 
	C180.444778,414.530792 176.883133,412.863281 174.973862,408.608307 
	C172.763092,403.681396 174.425934,399.631653 178.947876,396.072083 
	C179.669312,395.539703 179.870865,395.280457 180.072418,395.021179 
	C180.072403,395.021179 180.003052,395.020569 180.440399,395.067749 
	C190.044388,394.601074 193.819778,398.115723 193.632767,406.989044 
z"/>
<path fill="#2D589B" opacity="1.000000" stroke="none" 
	d="
M193.960144,406.794861 
	C193.819778,398.115723 190.044388,394.601074 180.447083,395.101746 
	C183.150803,390.572876 187.176895,391.660309 190.943481,393.745117 
	C195.294922,396.153625 196.504211,401.565613 193.960144,406.794861 
z"/>
<path fill="#2E579A" opacity="1.000000" stroke="none" 
	d="
M160.202621,406.858002 
	C159.851120,397.805237 155.909790,394.228546 146.445145,395.387451 
	C149.105011,391.685577 153.027084,391.073273 157.129745,393.773315 
	C161.544983,396.679047 162.843689,401.640594 160.202621,406.858002 
z"/>
<path fill="#2D589B" opacity="1.000000" stroke="none" 
	d="
M179.847626,395.111328 
	C179.870865,395.280457 179.669312,395.539703 179.211517,395.845886 
	C179.114563,395.601318 179.337097,395.370850 179.847626,395.111328 
z"/>
<path fill="#3A3B3D" opacity="1.000000" stroke="none" 
	d="
M132.981201,176.655029 
	C134.076630,171.841873 134.342941,166.978424 136.514114,163.213486 
	C139.297424,158.387070 145.120697,158.902008 148.476913,163.407593 
	C152.708389,169.088181 152.674393,179.263809 148.405045,184.916992 
	C144.843338,189.633163 139.311920,189.749237 136.046799,184.828491 
	C134.548264,182.570084 133.985611,179.690689 132.981201,176.655029 
z"/>
<path fill="#3A3B3D" opacity="1.000000" stroke="none" 
	d="
M232.758301,182.495483 
	C230.889923,186.119003 228.518951,188.845642 224.562027,188.411179 
	C220.301483,187.943375 217.976685,184.730927 216.864349,180.863403 
	C215.161346,174.942169 214.998337,169.035172 218.771317,163.728546 
	C222.537735,158.431183 228.276138,158.563705 231.708771,164.076401 
	C235.284088,169.818283 235.407913,175.929321 232.758301,182.495483 
z"/>
<path fill="#26539A" opacity="1.000000" stroke="none" 
	d="
M172.128265,219.030365 
	C186.393784,221.804367 199.507507,219.400192 212.234940,213.016037 
	C210.272903,220.697556 197.648743,228.215958 186.778412,229.045532 
	C172.836441,230.109528 157.689270,222.105560 154.849594,213.523727 
	C160.492844,215.346207 166.098297,217.156494 172.128265,219.030365 
z"/>
<path fill="#FFFDF9" opacity="1.000000" stroke="none" 
	d="
M319.058075,413.216980 
	C321.843567,415.631378 323.138367,413.559784 324.659485,412.055817 
	C333.271576,403.540619 342.832428,396.458160 354.448792,392.521515 
	C355.055542,392.315887 355.697418,392.213959 357.299652,391.829224 
	C356.387543,393.986938 355.831299,395.583893 355.064606,397.072449 
	C348.410980,409.990967 338.369537,419.780701 326.471191,427.822052 
	C323.114746,430.090485 320.086884,429.670593 318.020325,426.060577 
	C315.073059,420.912079 312.332184,415.645355 309.503174,410.429138 
	C309.856110,410.045746 310.209045,409.662323 310.562012,409.278931 
	C313.279968,410.528503 315.997955,411.778046 319.058075,413.216980 
z"/>
</svg>