<svg version="1.1" id="Layer_1" xmlns="http://www.w3.org/2000/svg" xmlns:xlink="http://www.w3.org/1999/xlink" x="0px" y="0px"
	 width="100%" viewBox="0 0 512 512" enable-background="new 0 0 512 512" xml:space="preserve">
<path fill="#000000" opacity="1.000000" stroke="none" 
	d="
M299.000000,513.000000 
	C199.357529,513.000000 100.215050,513.000000 1.036289,513.000000 
	C1.036289,342.399170 1.036289,171.798325 1.036289,1.098744 
	C171.559158,1.098744 342.118378,1.098744 512.838806,1.098744 
	C512.838806,171.666550 512.838806,342.333252 512.838806,513.000000 
	C441.798309,513.000000 370.649139,513.000000 299.000000,513.000000 
M201.955368,265.974365 
	C207.020920,266.317047 212.167938,267.379395 217.131073,266.817535 
	C223.129379,266.138397 229.216049,264.692596 234.812332,262.450256 
	C240.265793,260.265137 241.684448,248.847656 240.695236,244.417374 
	C239.612686,239.569000 238.159912,234.803268 237.033539,229.263229 
	C240.770569,223.664993 239.083206,216.893524 240.948914,210.875107 
	C241.205322,210.048004 240.416809,208.896988 240.010788,207.085342 
	C239.173004,202.895294 238.335220,198.705231 237.394577,194.000732 
	C239.734467,194.000732 241.069305,194.207489 242.318298,193.967468 
	C250.985397,192.301910 258.946350,188.710175 253.220337,177.849915 
	C248.141556,168.217209 242.225754,158.996536 236.236511,149.885147 
	C233.106461,145.123444 229.962677,141.246109 233.794922,135.077286 
	C236.735077,130.344482 237.027786,124.795769 234.130859,119.322487 
	C231.061493,113.523460 229.015121,107.161331 225.741074,101.496445 
	C216.537308,85.571732 203.970535,72.944817 187.786972,63.925304 
	C176.490204,57.629330 164.306335,54.093887 151.706558,52.182961 
	C143.986481,51.012104 136.052338,51.252731 127.835701,50.840492 
	C127.835701,54.044571 127.835701,56.520569 126.922241,58.998692 
	C121.334694,59.329670 115.710991,59.364998 110.165916,60.043209 
	C87.138580,62.859684 68.755196,73.895729 53.846573,91.526344 
	C39.854683,108.072853 33.769821,127.508896 33.297325,148.538483 
	C33.033714,160.271332 35.171310,172.158417 40.063175,183.169556 
	C46.054199,196.654785 54.180496,208.581039 66.045547,218.536636 
	C67.529778,221.687302 69.394493,224.719650 70.418625,228.013367 
	C72.517548,234.763763 76.022110,241.779190 75.572929,248.458542 
	C74.863045,259.014648 71.923553,269.546936 68.872948,279.774719 
	C66.866898,286.500427 63.006283,292.672974 59.300022,299.218536 
	C56.866501,302.813110 54.139889,306.245697 52.048687,310.029480 
	C41.304253,329.470306 33.376648,350.023041 29.115337,371.841339 
	C26.072218,387.422455 23.637711,403.123627 21.014591,418.785095 
	C19.593845,427.267731 18.202255,435.760376 17.075727,444.285248 
	C16.399654,449.401337 16.259747,454.588287 15.869017,459.876709 
	C83.930840,459.876709 151.231491,459.876709 219.420822,459.876709 
	C213.884811,439.157593 208.860184,418.648956 202.826340,398.441681 
	C199.480820,387.237610 195.071213,376.235077 189.965607,365.712097 
	C186.349579,358.259186 180.764450,351.761658 175.927429,344.249542 
	C175.476089,344.089355 175.024734,343.929138 174.322891,343.695892 
	C174.322891,343.695892 174.212021,343.459717 174.666718,342.679077 
	C174.570190,341.385223 174.581970,340.072388 174.358780,338.800781 
	C173.277649,332.640991 171.549286,326.532898 171.118530,320.332245 
	C169.695206,299.844574 172.322998,280.063171 183.804993,262.011200 
	C188.848206,263.324249 193.891418,264.637268 199.649475,266.089996 
	C200.129150,266.037933 200.608810,265.985870 201.955368,265.974365 
M388.025909,260.938995 
	C388.025909,265.934387 388.025909,270.929749 388.025909,276.541504 
	C386.704315,277.173523 384.505951,277.891174 382.688507,279.156067 
	C377.101440,283.044617 371.660126,287.142700 365.780670,291.760468 
	C364.267212,292.591675 362.304352,293.065063 361.312164,294.311310 
	C354.109924,303.357452 346.184448,312.004578 340.245728,321.839417 
	C330.828033,337.435608 327.428406,355.153076 327.117950,373.187744 
	C326.662567,399.642548 326.973663,426.111053 327.021576,452.573608 
	C327.032654,458.692719 330.501740,462.952728 335.700470,462.958679 
	C365.155609,462.992371 394.610962,462.899597 424.928711,462.996765 
	C427.271790,462.946716 429.614899,462.896667 432.891998,462.981537 
	C451.213684,462.987610 469.535370,463.013000 487.857025,462.990814 
	C495.692169,462.981293 497.999847,460.599182 497.999878,452.725891 
	C498.000031,398.760071 498.003143,344.794281 497.996918,290.828461 
	C497.995819,281.338013 490.443359,271.316437 481.566528,267.927612 
	C472.849518,264.599762 463.902405,266.706299 455.010986,265.011047 
	C455.049164,247.018768 455.087341,229.026474 455.746643,210.707932 
	C464.649872,207.418365 471.236450,201.281189 476.243805,193.455704 
	C490.408325,171.319229 498.279877,147.411438 498.191040,120.770279 
	C498.135986,104.241302 485.688629,94.273224 469.417175,95.509369 
	C464.019287,86.010399 457.871582,76.715218 447.420654,72.183502 
	C440.245667,69.072281 432.462860,67.067291 424.759949,65.527260 
	C405.776459,61.731945 386.636597,58.816048 367.190125,59.041004 
	C360.071198,59.123360 352.949982,59.548237 345.843353,60.020805 
	C336.248779,60.658813 327.330933,63.494152 319.284973,68.852478 
	C311.601776,73.969231 308.965240,80.167816 312.437683,88.434677 
	C315.877686,96.624344 319.968628,104.660698 324.756195,112.135231 
	C331.428802,122.552780 338.046722,133.234039 348.980560,140.864029 
	C348.319366,145.858643 347.070862,150.857208 347.104309,155.847168 
	C347.216217,172.551422 347.786316,189.252625 348.010590,206.718094 
	C348.397095,208.153915 348.783600,209.589752 349.020264,211.827332 
	C351.285553,229.275131 370.251801,248.913620 387.973694,252.952271 
	C388.037933,255.308624 388.102142,257.664978 388.025909,260.938995 
z"/>
<path fill="#64B5F4" opacity="1.000000" stroke="none" 
	d="
M455.094543,265.938538 
	C463.902405,266.706299 472.849518,264.599762 481.566528,267.927612 
	C490.443359,271.316437 497.995819,281.338013 497.996918,290.828461 
	C498.003143,344.794281 498.000031,398.760071 497.999878,452.725891 
	C497.999847,460.599182 495.692169,462.981293 487.857025,462.990814 
	C469.535370,463.013000 451.213684,462.987610 432.429626,462.455383 
	C431.969849,433.658417 431.972626,405.387543 431.974182,377.116699 
	C431.974243,376.118958 432.304718,374.929230 431.877502,374.167603 
	C431.203217,372.965424 430.171021,371.408142 429.018707,371.131165 
	C425.102051,370.189789 423.947754,372.140320 423.967499,376.042267 
	C424.113983,404.977570 424.058350,433.913910 424.066223,462.849915 
	C394.610962,462.899597 365.155609,462.992371 335.700470,462.958679 
	C330.501740,462.952728 327.032654,458.692719 327.021576,452.573608 
	C326.973663,426.111053 326.662567,399.642548 327.117950,373.187744 
	C327.428406,355.153076 330.828033,337.435608 340.245728,321.839417 
	C346.184448,312.004578 354.109924,303.357452 361.312164,294.311310 
	C362.304352,293.065063 364.267212,292.591675 366.365173,291.410614 
	C368.388794,290.765350 369.881439,290.624603 371.258026,290.148499 
	C378.150543,287.764404 384.898041,284.880951 391.906982,282.928711 
	C412.916931,277.076538 434.024841,271.576202 455.094543,265.938538 
z"/>
<path fill="#B3D4FF" opacity="1.000000" stroke="none" 
	d="
M176.058304,344.837677 
	C180.764450,351.761658 186.349579,358.259186 189.965607,365.712097 
	C195.071213,376.235077 199.480820,387.237610 202.826340,398.441681 
	C208.860184,418.648956 213.884811,439.157593 219.420822,459.876709 
	C151.231491,459.876709 83.930840,459.876709 15.869017,459.876709 
	C16.259747,454.588287 16.399654,449.401337 17.075727,444.285248 
	C18.202255,435.760376 19.593845,427.267731 21.014591,418.785095 
	C23.637711,403.123627 26.072218,387.422455 29.115337,371.841339 
	C33.376648,350.023041 41.304253,329.470306 52.048687,310.029480 
	C54.139889,306.245697 56.866501,302.813110 59.663055,299.533386 
	C62.035404,307.467712 64.846741,314.448608 73.860275,316.870453 
	C75.383690,317.189789 76.550041,317.414490 78.141296,317.777313 
	C87.584061,319.234833 96.601913,320.554230 106.027863,321.914795 
	C107.531288,321.963623 108.626640,321.971313 110.015900,322.268341 
	C113.085564,322.988739 115.861320,323.419800 118.911041,323.922821 
	C120.293983,324.228577 121.402962,324.462341 122.924179,324.814026 
	C126.431953,325.536346 129.527481,326.140717 132.988007,326.841675 
	C134.535339,327.259888 135.717667,327.581451 137.300018,327.954071 
	C150.721558,331.146484 163.516632,334.822815 174.212021,343.459717 
	C174.212021,343.459717 174.322891,343.695892 174.550964,343.970428 
	C175.205444,344.442535 175.631866,344.640106 176.058304,344.837677 
z"/>
<path fill="#272D4F" opacity="1.000000" stroke="none" 
	d="
M348.999969,140.022049 
	C338.046722,133.234039 331.428802,122.552780 324.756195,112.135231 
	C319.968628,104.660698 315.877686,96.624344 312.437683,88.434677 
	C308.965240,80.167816 311.601776,73.969231 319.284973,68.852478 
	C327.330933,63.494152 336.248779,60.658813 345.843353,60.020805 
	C352.949982,59.548237 360.071198,59.123360 367.190125,59.041004 
	C386.636597,58.816048 405.776459,61.731945 424.759949,65.527260 
	C432.462860,67.067291 440.245667,69.072281 447.420654,72.183502 
	C457.871582,76.715218 464.019287,86.010399 469.417175,95.509369 
	C485.688629,94.273224 498.135986,104.241302 498.191040,120.770279 
	C498.279877,147.411438 490.408325,171.319229 476.243805,193.455704 
	C471.236450,201.281189 464.649872,207.418365 455.255859,210.576187 
	C446.885071,201.289001 446.277679,190.751648 448.361328,179.431229 
	C450.010559,170.471024 451.164398,161.398300 452.046570,152.327728 
	C452.457214,148.105560 450.658203,144.057800 446.038971,143.154556 
	C441.592865,142.285156 436.937347,142.486572 431.761169,142.181366 
	C431.761169,153.775070 431.761169,164.323730 431.761169,174.856445 
	C421.664215,174.721466 414.273743,167.513657 413.976013,157.858978 
	C413.818115,152.738220 413.948059,147.608566 413.948059,142.190857 
	C412.158722,142.292252 410.867371,142.309738 409.588837,142.446671 
	C399.003784,143.580276 388.402893,144.592270 377.842804,145.925827 
	C367.505676,147.231216 358.195648,144.026886 348.999969,140.022049 
z"/>
<path fill="#B3D4FE" opacity="1.000000" stroke="none" 
	d="
M127.835701,58.996567 
	C127.835701,56.520569 127.835701,54.044571 127.835701,50.840492 
	C136.052338,51.252731 143.986481,51.012104 151.706558,52.182961 
	C164.306335,54.093887 176.490204,57.629330 187.786972,63.925304 
	C203.970535,72.944817 216.537308,85.571732 225.741074,101.496445 
	C229.015121,107.161331 231.061493,113.523460 234.130859,119.322487 
	C237.027786,124.795769 236.735077,130.344482 233.794922,135.077286 
	C229.962677,141.246109 233.106461,145.123444 236.236511,149.885147 
	C242.225754,158.996536 248.141556,168.217209 253.220337,177.849915 
	C258.946350,188.710175 250.985397,192.301910 242.318298,193.967468 
	C241.069305,194.207489 239.734467,194.000732 237.394577,194.000732 
	C238.335220,198.705231 239.173004,202.895294 239.821320,207.763397 
	C234.742661,211.293640 229.853455,214.145828 224.572174,217.141571 
	C216.193619,218.638702 208.207153,219.992249 199.903198,221.399612 
	C199.752563,219.546844 200.027420,217.252335 199.315598,215.321594 
	C197.697403,210.932388 196.525055,205.868546 193.520981,202.592331 
	C182.754532,190.850571 171.311203,179.728699 160.086304,168.409653 
	C159.305511,167.622314 158.218170,167.139008 157.433014,166.199020 
	C162.226639,143.114426 156.076599,128.498901 137.590302,118.648979 
	C134.849182,117.188461 131.870209,116.174355 129.004059,114.488068 
	C128.981979,105.865356 129.039978,97.706757 128.888107,89.552063 
	C128.833572,86.625023 128.273102,83.707413 128.026489,80.336395 
	C128.018188,72.923714 127.926941,65.960136 127.835701,58.996567 
M220.776718,155.479309 
	C223.402374,149.577316 225.348450,143.673981 220.512482,137.273987 
	C219.977554,137.101257 219.442612,136.928528 218.348145,136.347855 
	C209.475357,137.047379 202.891022,142.482758 194.616714,146.924316 
	C199.347305,149.468216 202.828018,151.693924 206.583542,153.261078 
	C210.420181,154.862076 214.526535,155.816742 219.070724,156.992950 
	C219.470169,156.641083 219.869598,156.289215 220.776718,155.479309 
z"/>
<path fill="#FDB69E" opacity="1.000000" stroke="none" 
	d="
M348.990265,140.443039 
	C358.195648,144.026886 367.505676,147.231216 377.842804,145.925827 
	C388.402893,144.592270 399.003784,143.580276 409.588837,142.446671 
	C410.867371,142.309738 412.158722,142.292252 413.948059,142.190857 
	C413.948059,147.608566 413.818115,152.738220 413.976013,157.858978 
	C414.273743,167.513657 421.664215,174.721466 431.761169,174.856445 
	C431.761169,164.323730 431.761169,153.775070 431.761169,142.181366 
	C436.937347,142.486572 441.592865,142.285156 446.038971,143.154556 
	C450.658203,144.057800 452.457214,148.105560 452.046570,152.327728 
	C451.164398,161.398300 450.010559,170.471024 448.361328,179.431229 
	C446.277679,190.751648 446.885071,201.289001 454.945312,210.739319 
	C455.087341,229.026474 455.049164,247.018768 455.052765,265.474792 
	C434.024841,271.576202 412.916931,277.076538 391.906982,282.928711 
	C384.898041,284.880951 378.150543,287.764404 371.258026,290.148499 
	C369.881439,290.624603 368.388794,290.765350 366.555908,291.110046 
	C371.660126,287.142700 377.101440,283.044617 382.688507,279.156067 
	C384.505951,277.891174 386.704315,277.173523 388.025909,276.541504 
	C388.025909,270.929749 388.025909,265.934387 388.549377,260.481689 
	C400.059875,260.717041 410.105682,258.139526 419.218719,252.075439 
	C408.598297,252.075439 398.244476,252.075439 387.890656,252.075439 
	C370.251801,248.913620 351.285553,229.275131 349.491821,211.498856 
	C355.227356,212.537888 360.451691,212.912109 365.220947,209.739502 
	C366.031372,209.200409 366.481140,207.580765 366.410248,206.505600 
	C366.379547,206.039658 364.599396,205.327759 363.625214,205.345642 
	C358.475128,205.440277 353.328674,205.731766 348.180969,205.954987 
	C347.786316,189.252625 347.216217,172.551422 347.104309,155.847168 
	C347.070862,150.857208 348.319366,145.858643 348.990265,140.443039 
M359.679504,163.979706 
	C358.209076,162.297699 356.738647,160.615677 355.268250,158.933655 
	C354.155029,160.804886 352.410126,162.569641 352.072601,164.571640 
	C351.528992,167.796677 351.502014,172.492599 355.452911,172.730621 
	C360.085785,173.009796 359.522186,168.152039 359.679504,163.979706 
M421.480316,250.553864 
	C421.480316,250.553864 421.440918,250.480316 421.480316,250.553864 
z"/>
<path fill="#FDC402" opacity="1.000000" stroke="none" 
	d="
M127.378967,58.997627 
	C127.926941,65.960136 128.018188,72.923714 127.576691,80.325882 
	C117.010933,80.848152 119.152405,79.724930 115.432495,88.722191 
	C114.988342,89.796455 114.571480,90.882133 114.150208,91.965721 
	C110.957901,100.177010 108.686325,101.149292 100.811806,97.671097 
	C89.484406,92.667770 89.386909,92.573494 80.972984,101.276604 
	C71.071510,111.518387 71.844879,106.818428 77.612045,120.339485 
	C81.111328,128.543518 80.213928,130.973557 71.992722,134.134094 
	C60.765720,138.450165 60.638153,138.451874 60.798477,150.462143 
	C60.992592,165.003998 58.431736,160.948944 71.725914,166.464005 
	C74.942879,167.798584 79.026794,168.582840 79.041901,172.767502 
	C79.054138,176.155121 77.501160,179.548386 76.388351,183.133820 
	C74.885292,184.134872 73.652893,184.968353 72.384575,185.743011 
	C66.097336,189.583054 65.309036,193.921738 70.485275,198.925598 
	C74.274597,202.588730 78.578926,205.719116 82.774719,209.322662 
	C83.369522,209.741043 83.843315,209.923706 84.554001,210.393555 
	C99.351112,219.510437 115.057343,223.380844 132.010086,221.055298 
	C138.035614,220.228729 143.945679,218.560638 149.896667,217.694214 
	C150.951569,223.004105 152.018265,227.896484 152.737946,232.935730 
	C150.034698,233.861115 147.678452,234.639618 144.922943,235.470322 
	C143.463211,235.783813 142.402771,236.045090 140.988785,236.310303 
	C138.222015,236.749405 135.808762,237.184570 133.101624,237.672745 
	C136.623932,248.754486 142.293884,259.066650 140.953354,270.978027 
	C140.986649,270.986298 140.983322,270.917755 140.685379,270.843323 
	C140.250153,271.145905 140.112885,271.522949 139.625778,272.050171 
	C137.808228,272.448120 136.340500,272.695862 134.858246,272.552368 
	C135.543335,269.009613 137.397232,265.583893 136.725937,262.758057 
	C134.722061,254.322708 131.728180,246.122543 129.104279,237.777512 
	C123.189697,237.777512 118.220535,237.777512 112.996033,237.616089 
	C111.530846,237.346878 110.320999,237.239090 108.733429,236.999298 
	C100.818794,234.504898 92.986145,232.801971 85.829109,229.592484 
	C78.835999,226.456482 72.532364,221.783005 65.926071,217.784424 
	C54.180496,208.581039 46.054199,196.654785 40.063175,183.169556 
	C35.171310,172.158417 33.033714,160.271332 33.297325,148.538483 
	C33.769821,127.508896 39.854683,108.072853 53.846573,91.526344 
	C68.755196,73.895729 87.138580,62.859684 110.165916,60.043209 
	C115.710991,59.364998 121.334694,59.329670 127.378967,58.997627 
z"/>
<path fill="#B2D3FE" opacity="1.000000" stroke="none" 
	d="
M153.084961,232.788864 
	C152.018265,227.896484 150.951569,223.004105 149.800842,217.298950 
	C149.484879,211.293777 149.252960,206.101379 149.157898,200.664658 
	C149.422195,199.708588 149.549667,198.996841 149.732254,197.803955 
	C150.205933,191.555603 150.624481,185.788437 151.027771,180.011581 
	C151.012527,180.001907 151.026199,180.034286 151.281219,179.977722 
	C151.705292,179.626663 151.874344,179.332169 152.024139,179.021805 
	C152.004913,179.005920 152.029419,179.049362 152.270569,178.963318 
	C152.657745,178.578934 152.803772,178.280594 153.086609,177.653259 
	C154.476959,174.438309 155.730515,171.552353 157.296661,168.822464 
	C168.927231,180.447220 180.412521,191.758698 191.442093,203.498322 
	C194.102692,206.330185 196.622269,210.488770 196.867157,214.191956 
	C198.006058,231.414993 198.323349,248.692383 198.934631,265.950317 
	C193.891418,264.637268 188.848206,263.324249 183.246811,261.689331 
	C174.248337,257.977386 167.148117,252.704163 160.962936,245.691315 
	C159.728897,243.912979 158.607147,242.430588 157.337524,240.611984 
	C155.821411,237.780151 154.453186,235.284500 153.084961,232.788864 
z"/>
<path fill="#282E4F" opacity="1.000000" stroke="none" 
	d="
M65.985809,218.160522 
	C72.532364,221.783005 78.835999,226.456482 85.829109,229.592484 
	C92.986145,232.801971 100.818794,234.504898 108.751595,237.413559 
	C110.177994,250.718582 111.208504,263.477325 111.953415,276.449829 
	C104.253807,278.949310 98.177826,283.363708 93.523056,289.371979 
	C86.597572,298.311188 80.152649,307.622742 73.503212,316.775818 
	C64.846741,314.448608 62.035404,307.467712 60.001122,299.470764 
	C63.006283,292.672974 66.866898,286.500427 68.872948,279.774719 
	C71.923553,269.546936 74.863045,259.014648 75.572929,248.458542 
	C76.022110,241.779190 72.517548,234.763763 70.418625,228.013367 
	C69.394493,224.719650 67.529778,221.687302 65.985809,218.160522 
z"/>
<path fill="#282E51" opacity="1.000000" stroke="none" 
	d="
M161.075226,245.987259 
	C167.148117,252.704163 174.248337,257.977386 182.848877,261.677307 
	C172.322998,280.063171 169.695206,299.844574 171.118530,320.332245 
	C171.549286,326.532898 173.277649,332.640991 174.358780,338.800781 
	C174.581970,340.072388 174.570190,341.385223 174.439362,343.069397 
	C163.516632,334.822815 150.721558,331.146484 137.269547,327.555054 
	C139.370453,319.946411 141.307373,312.500946 144.587570,305.703766 
	C148.466629,297.665588 153.570786,290.224579 158.023987,282.455994 
	C162.991104,273.790924 163.768478,264.929993 158.856628,255.539658 
	C159.622147,252.093033 160.348694,249.040146 161.075226,245.987259 
z"/>
<path fill="#B2D3FE" opacity="1.000000" stroke="none" 
	d="
M236.868500,230.001526 
	C238.159912,234.803268 239.612686,239.569000 240.695236,244.417374 
	C241.684448,248.847656 240.265793,260.265137 234.812332,262.450256 
	C229.216049,264.692596 223.129379,266.138397 217.131073,266.817535 
	C212.167938,267.379395 207.020920,266.317047 201.512787,265.489685 
	C201.070206,251.564087 201.070206,238.123184 201.070206,223.328278 
	C208.011292,222.349823 215.963120,221.228882 223.936874,220.466965 
	C226.328156,226.605408 231.888901,227.894638 236.868500,230.001526 
z"/>
<path fill="#319EEE" opacity="1.000000" stroke="none" 
	d="
M424.497467,462.923340 
	C424.058350,433.913910 424.113983,404.977570 423.967499,376.042267 
	C423.947754,372.140320 425.102051,370.189789 429.018707,371.131165 
	C430.171021,371.408142 431.203217,372.965424 431.877502,374.167603 
	C432.304718,374.929230 431.974243,376.118958 431.974182,377.116699 
	C431.972626,405.387543 431.969849,433.658417 431.962646,462.387939 
	C429.614899,462.896667 427.271790,462.946716 424.497467,462.923340 
z"/>
<path fill="#333650" opacity="1.000000" stroke="none" 
	d="
M223.914948,220.107941 
	C215.963120,221.228882 208.011292,222.349823 201.070206,223.328278 
	C201.070206,238.123184 201.070206,251.564087 201.079346,265.469421 
	C200.608810,265.985870 200.129150,266.037933 199.292053,266.020142 
	C198.323349,248.692383 198.006058,231.414993 196.867157,214.191956 
	C196.622269,210.488770 194.102692,206.330185 191.442093,203.498322 
	C180.412521,191.758698 168.927231,180.447220 157.324799,168.461273 
	C157.118011,167.467453 157.195694,166.990875 157.273376,166.514313 
	C158.218170,167.139008 159.305511,167.622314 160.086304,168.409653 
	C171.311203,179.728699 182.754532,190.850571 193.520981,202.592331 
	C196.525055,205.868546 197.697403,210.932388 199.315598,215.321594 
	C200.027420,217.252335 199.752563,219.546844 199.903198,221.399612 
	C208.207153,219.992249 216.193619,218.638702 225.029999,217.216003 
	C229.869202,217.346420 233.858505,217.545975 237.847794,217.745529 
	C237.814987,218.314529 237.782166,218.883514 237.749359,219.452499 
	C233.137878,219.670990 228.526413,219.889465 223.914948,220.107941 
z"/>
<path fill="#7E9DE1" opacity="1.000000" stroke="none" 
	d="
M223.936874,220.466980 
	C228.526413,219.889465 233.137878,219.670990 237.749359,219.452499 
	C237.782166,218.883514 237.814987,218.314529 237.847794,217.745529 
	C233.858505,217.545975 229.869202,217.346420 225.422089,217.072449 
	C229.853455,214.145828 234.742661,211.293640 239.871979,208.168686 
	C240.416809,208.896988 241.205322,210.048004 240.948914,210.875107 
	C239.083206,216.893524 240.770569,223.664993 236.951019,229.632385 
	C231.888901,227.894638 226.328156,226.605408 223.936874,220.466980 
z"/>
<path fill="#F89780" opacity="1.000000" stroke="none" 
	d="
M387.932190,252.513855 
	C398.244476,252.075439 408.598297,252.075439 419.218719,252.075439 
	C410.105682,258.139526 400.059875,260.717041 388.619598,260.022888 
	C388.102142,257.664978 388.037933,255.308624 387.932190,252.513855 
z"/>
<path fill="#F89780" opacity="1.000000" stroke="none" 
	d="
M348.095764,206.336548 
	C353.328674,205.731766 358.475128,205.440277 363.625214,205.345642 
	C364.599396,205.327759 366.379547,206.039658 366.410248,206.505600 
	C366.481140,207.580765 366.031372,209.200409 365.220947,209.739502 
	C360.451691,212.912109 355.227356,212.537888 349.566711,211.097977 
	C348.783600,209.589752 348.397095,208.153915 348.095764,206.336548 
z"/>
<path fill="#282E51" opacity="1.000000" stroke="none" 
	d="
M175.992859,344.543610 
	C175.631866,344.640106 175.205444,344.442535 174.676208,344.006958 
	C175.024734,343.929138 175.476089,344.089355 175.992859,344.543610 
z"/>
<path fill="#282E4F" opacity="1.000000" stroke="none" 
	d="
M132.623016,326.745056 
	C129.527481,326.140717 126.431953,325.536346 122.956589,324.367584 
	C122.740929,317.478027 122.494331,311.108948 123.164658,304.837921 
	C124.194145,295.206940 123.856483,284.898163 133.399399,278.144592 
	C144.378662,276.481018 151.987747,270.824982 156.819366,261.630615 
	C158.963943,267.699066 158.231766,273.225800 155.471191,278.398041 
	C152.894394,283.226074 149.972351,287.877899 147.054199,292.514099 
	C140.365250,303.141205 135.079666,314.342133 132.623016,326.745056 
z"/>
<path fill="#292F51" opacity="1.000000" stroke="none" 
	d="
M105.619774,321.873627 
	C96.601913,320.554230 87.584061,319.234833 78.322784,317.498352 
	C83.712708,309.344391 89.115829,301.425140 95.054558,293.930237 
	C99.544434,288.263885 104.457397,282.789764 112.091934,281.560852 
	C109.943825,295.298523 107.781799,308.586090 105.619774,321.873627 
z"/>
<path fill="#F14E5A" opacity="1.000000" stroke="none" 
	d="
M112.078018,281.110748 
	C104.457397,282.789764 99.544434,288.263885 95.054558,293.930237 
	C89.115829,301.425140 83.712708,309.344391 77.897888,317.360229 
	C76.550041,317.414490 75.383690,317.189789 73.860275,316.870453 
	C80.152649,307.622742 86.597572,298.311188 93.523056,289.371979 
	C98.177826,283.363708 104.253807,278.949310 112.310394,276.421051 
	C114.070747,275.893646 115.188522,275.608795 116.746422,275.338440 
	C122.500885,274.834625 127.815231,274.316284 133.409393,273.779358 
	C134.126465,273.475525 134.563721,273.190277 134.978699,272.947144 
	C134.956421,272.989258 134.872787,272.943634 134.872787,272.943634 
	C136.340500,272.695862 137.808228,272.448120 139.905304,272.007812 
	C140.684204,271.516113 140.833771,271.216949 140.983337,270.917755 
	C140.983322,270.917755 140.986649,270.986298 141.313965,271.057556 
	C148.633865,268.133667 152.288651,262.499054 154.328003,255.147186 
	C154.938461,253.389236 155.304733,251.878021 155.809891,249.953735 
	C156.460983,246.676514 156.973206,243.812347 157.485413,240.948181 
	C158.607147,242.430588 159.728897,243.912979 160.962921,245.691315 
	C160.348694,249.040146 159.622147,252.093033 158.610443,255.793823 
	C157.788223,258.043335 157.251190,259.644958 156.714142,261.246582 
	C151.987747,270.824982 144.378662,276.481018 133.002136,278.124146 
	C130.131653,278.458832 128.054581,278.759735 125.549255,279.029083 
	C122.145981,279.359955 119.170944,279.722382 115.836372,280.028503 
	C114.343895,280.351685 113.210953,280.731232 112.078018,281.110748 
z"/>
<path fill="#61ACE9" opacity="1.000000" stroke="none" 
	d="
M156.819366,261.630615 
	C157.251190,259.644958 157.788223,258.043335 158.571457,256.187561 
	C163.768478,264.929993 162.991104,273.790924 158.023987,282.455994 
	C153.570786,290.224579 148.466629,297.665588 144.587570,305.703766 
	C141.307373,312.500946 139.370453,319.946411 136.869537,327.503967 
	C135.717667,327.581451 134.535339,327.259888 132.988007,326.841675 
	C135.079666,314.342133 140.365250,303.141205 147.054199,292.514099 
	C149.972351,287.877899 152.894394,283.226074 155.471191,278.398041 
	C158.231766,273.225800 158.963943,267.699066 156.819366,261.630615 
z"/>
<path fill="#333650" opacity="1.000000" stroke="none" 
	d="
M116.195915,280.084808 
	C119.170944,279.722382 122.145981,279.359955 125.425369,279.346344 
	C124.148163,283.488922 121.633217,287.171082 121.163750,291.097809 
	C119.864998,301.960907 119.419724,312.926025 118.637070,323.850830 
	C115.861320,323.419800 113.085564,322.988739 110.125420,321.888062 
	C114.022156,307.810760 116.129692,294.102997 116.195915,280.084808 
z"/>
<path fill="#FDC402" opacity="1.000000" stroke="none" 
	d="
M118.911041,323.922821 
	C119.419724,312.926025 119.864998,301.960907 121.163750,291.097809 
	C121.633217,287.171082 124.148163,283.488922 125.853615,279.377899 
	C128.054581,278.759735 130.131653,278.458832 132.606018,278.178345 
	C123.856483,284.898163 124.194145,295.206940 123.164658,304.837921 
	C122.494331,311.108948 122.740929,317.478027 122.544342,324.249634 
	C121.402962,324.462341 120.293983,324.228577 118.911041,323.922821 
z"/>
<path fill="#F3F3F5" opacity="1.000000" stroke="none" 
	d="
M115.836372,280.028503 
	C116.129692,294.102997 114.022156,307.810760 109.831512,321.598694 
	C108.626640,321.971313 107.531288,321.963623 106.027863,321.914795 
	C107.781799,308.586090 109.943825,295.298523 112.091934,281.560852 
	C113.210953,280.731232 114.343895,280.351685 115.836372,280.028503 
z"/>
<path fill="#292F51" opacity="1.000000" stroke="none" 
	d="
M157.433014,166.199020 
	C157.195694,166.990875 157.118011,167.467453 157.012192,168.305206 
	C155.730515,171.552353 154.476959,174.438309 152.855469,177.753052 
	C152.334824,178.471008 152.182114,178.760178 152.029419,179.049362 
	C152.029419,179.049362 152.004913,179.005920 151.744583,179.045654 
	C151.331573,179.401703 151.178879,179.717987 151.026199,180.034286 
	C151.026199,180.034286 151.012527,180.001907 150.684448,180.061096 
	C141.245132,187.402008 130.919968,190.924698 119.235497,189.851257 
	C108.851715,188.897324 100.319786,183.973206 92.726669,176.659180 
	C80.331604,157.885315 83.971954,135.093460 101.227852,122.338181 
	C109.515976,116.211731 118.925987,114.340408 129.001282,114.953720 
	C131.870209,116.174355 134.849182,117.188461 137.590302,118.648979 
	C156.076599,128.498901 162.226639,143.114426 157.433014,166.199020 
M126.196236,135.825409 
	C114.284836,134.439667 106.258957,144.323761 105.862038,152.568604 
	C105.357681,163.044998 112.217300,171.366837 122.596741,172.531952 
	C132.058945,173.594070 140.758560,166.731354 142.494431,156.835587 
	C144.206039,147.078079 137.727539,138.295410 126.196236,135.825409 
z"/>
<path fill="#FEFEFD" opacity="1.000000" stroke="none" 
	d="
M129.004059,114.488068 
	C118.925987,114.340408 109.515976,116.211731 101.227852,122.338181 
	C83.971954,135.093460 80.331604,157.885315 92.319115,176.614426 
	C86.897064,178.904999 81.769760,180.922073 76.642448,182.939148 
	C77.501160,179.548386 79.054138,176.155121 79.041901,172.767502 
	C79.026794,168.582840 74.942879,167.798584 71.725914,166.464005 
	C58.431736,160.948944 60.992592,165.003998 60.798477,150.462143 
	C60.638153,138.451874 60.765720,138.450165 71.992722,134.134094 
	C80.213928,130.973557 81.111328,128.543518 77.612045,120.339485 
	C71.844879,106.818428 71.071510,111.518387 80.972984,101.276604 
	C89.386909,92.573494 89.484406,92.667770 100.811806,97.671097 
	C108.686325,101.149292 110.957901,100.177010 114.150208,91.965721 
	C114.571480,90.882133 114.988342,89.796455 115.432495,88.722191 
	C119.152405,79.724930 117.010933,80.848152 127.493744,80.774994 
	C128.273102,83.707413 128.833572,86.625023 128.888107,89.552063 
	C129.039978,97.706757 128.981979,105.865356 129.004059,114.488068 
z"/>
<path fill="#2A2B38" opacity="1.000000" stroke="none" 
	d="
M218.514816,157.054352 
	C214.526535,155.816742 210.420181,154.862076 206.583542,153.261078 
	C202.828018,151.693924 199.347305,149.468216 194.616714,146.924316 
	C202.891022,142.482758 209.475357,137.047379 218.315918,136.704483 
	C211.863708,143.561951 211.941528,150.293579 218.514816,157.054352 
z"/>
<path fill="#2A2B38" opacity="1.000000" stroke="none" 
	d="
M220.811783,137.757828 
	C225.348450,143.673981 223.402374,149.577316 220.310272,155.414276 
	C213.669983,149.696426 214.044159,142.896240 220.811783,137.757828 
z"/>
<path fill="#FDC402" opacity="1.000000" stroke="none" 
	d="
M220.662140,137.515900 
	C214.044159,142.896240 213.669983,149.696426 220.056427,155.643311 
	C219.869598,156.289215 219.470169,156.641083 218.792770,157.023651 
	C211.941528,150.293579 211.863708,143.561951 218.595673,136.908447 
	C219.442612,136.928528 219.977554,137.101257 220.662140,137.515900 
z"/>
<path fill="#2A2B38" opacity="1.000000" stroke="none" 
	d="
M359.746155,164.379898 
	C359.522186,168.152039 360.085785,173.009796 355.452911,172.730621 
	C351.502014,172.492599 351.528992,167.796677 352.072601,164.571640 
	C352.410126,162.569641 354.155029,160.804886 355.268250,158.933655 
	C356.738647,160.615677 358.209076,162.297699 359.746155,164.379898 
z"/>
<path fill="#F89780" opacity="1.000000" stroke="none" 
	d="
M421.460632,250.517090 
	C421.440918,250.480316 421.480316,250.553864 421.460632,250.517090 
z"/>
<path fill="#64B4F1" opacity="1.000000" stroke="none" 
	d="
M76.388351,183.133820 
	C81.769760,180.922073 86.897064,178.904999 92.431931,176.932678 
	C100.319786,183.973206 108.851715,188.897324 119.235497,189.851257 
	C130.919968,190.924698 141.245132,187.402008 150.699692,180.070770 
	C150.624481,185.788437 150.205933,191.555603 149.394012,197.890488 
	C133.421921,203.981812 118.249413,203.471573 103.297371,195.975067 
	C101.416260,195.031937 97.753014,195.393921 96.097023,196.676605 
	C91.293579,200.397232 87.091652,204.894455 82.653702,209.086960 
	C78.578926,205.719116 74.274597,202.588730 70.485275,198.925598 
	C65.309036,193.921738 66.097336,189.583054 72.384575,185.743011 
	C73.652893,184.968353 74.885292,184.134872 76.388351,183.133820 
z"/>
<path fill="#64B4F1" opacity="1.000000" stroke="none" 
	d="
M149.021042,200.908997 
	C149.252960,206.101379 149.484879,211.293777 149.812622,216.881424 
	C143.945679,218.560638 138.035614,220.228729 132.010086,221.055298 
	C115.057343,223.380844 99.351112,219.510437 84.806236,210.122192 
	C88.740128,205.999557 92.503716,202.237366 96.664497,198.982971 
	C98.048775,197.900269 100.935562,197.179459 102.315002,197.888779 
	C117.503082,205.698624 133.059021,206.014816 149.021042,200.908997 
z"/>
<path fill="#292F51" opacity="1.000000" stroke="none" 
	d="
M133.129578,273.797974 
	C127.815231,274.316284 122.500885,274.834625 116.729446,274.836517 
	C115.265358,262.139221 114.258362,249.958359 113.251373,237.777512 
	C118.220535,237.777512 123.189697,237.777512 129.104279,237.777512 
	C131.728180,246.122543 134.722061,254.322708 136.725937,262.758057 
	C137.397232,265.583893 135.543335,269.009613 134.858246,272.552368 
	C134.872787,272.943634 134.956421,272.989258 134.704315,272.819397 
	C134.011353,273.032349 133.570465,273.415161 133.129578,273.797974 
z"/>
<path fill="#292F51" opacity="1.000000" stroke="none" 
	d="
M154.083801,255.393936 
	C152.288651,262.499054 148.633865,268.133667 141.280670,271.049316 
	C142.293884,259.066650 136.623932,248.754486 133.101624,237.672745 
	C135.808762,237.184570 138.222015,236.749405 141.143372,236.638763 
	C145.795578,243.106857 149.939682,249.250397 154.083801,255.393936 
z"/>
<path fill="#292F51" opacity="1.000000" stroke="none" 
	d="
M149.157898,200.664658 
	C133.059021,206.014816 117.503082,205.698624 102.315002,197.888779 
	C100.935562,197.179459 98.048775,197.900269 96.664497,198.982971 
	C92.503716,202.237366 88.740128,205.999557 84.569351,209.835022 
	C83.843315,209.923706 83.369522,209.741043 82.774712,209.322662 
	C87.091652,204.894455 91.293579,200.397232 96.097023,196.676605 
	C97.753014,195.393921 101.416260,195.031937 103.297371,195.975067 
	C118.249413,203.471573 133.421921,203.981812 149.338898,198.371643 
	C149.549667,198.996841 149.422195,199.708588 149.157898,200.664658 
z"/>
<path fill="#F3F3F5" opacity="1.000000" stroke="none" 
	d="
M112.996033,237.616089 
	C114.258362,249.958359 115.265358,262.139221 116.289330,274.821991 
	C115.188522,275.608795 114.070747,275.893646 112.595993,276.207275 
	C111.208504,263.477325 110.177994,250.718582 109.129311,237.545578 
	C110.320999,237.239090 111.530846,237.346878 112.996033,237.616089 
z"/>
<path fill="#333650" opacity="1.000000" stroke="none" 
	d="
M157.337524,240.611984 
	C156.973206,243.812347 156.460983,246.676514 155.567596,249.714813 
	C151.898331,245.065353 148.610275,240.241730 145.322205,235.418121 
	C147.678452,234.639618 150.034698,233.861115 152.737946,232.935730 
	C154.453186,235.284500 155.821411,237.780151 157.337524,240.611984 
z"/>
<path fill="#61ACE9" opacity="1.000000" stroke="none" 
	d="
M144.922943,235.470322 
	C148.610275,240.241730 151.898331,245.065353 155.428711,250.127884 
	C155.304733,251.878021 154.938461,253.389236 154.328003,255.147186 
	C149.939682,249.250397 145.795578,243.106857 141.496887,236.634827 
	C142.402771,236.045090 143.463211,235.783813 144.922943,235.470322 
z"/>
<path fill="#292F51" opacity="1.000000" stroke="none" 
	d="
M140.685394,270.843323 
	C140.833771,271.216949 140.684204,271.516113 140.255127,271.857666 
	C140.112885,271.522949 140.250153,271.145905 140.685394,270.843323 
z"/>
<path fill="#64B4F1" opacity="1.000000" stroke="none" 
	d="
M151.281219,179.977722 
	C151.178879,179.717987 151.331573,179.401703 151.763824,179.061554 
	C151.874344,179.332169 151.705292,179.626663 151.281219,179.977722 
z"/>
<path fill="#64B4F1" opacity="1.000000" stroke="none" 
	d="
M152.270569,178.963318 
	C152.182114,178.760178 152.334824,178.471008 152.718658,178.082047 
	C152.803772,178.280594 152.657745,178.578934 152.270569,178.963318 
z"/>
<path fill="#FDC402" opacity="1.000000" stroke="none" 
	d="
M133.409393,273.779358 
	C133.570465,273.415161 134.011353,273.032349 134.726608,272.777283 
	C134.563721,273.190277 134.126465,273.475525 133.409393,273.779358 
z"/>
<path fill="#FEFEFD" opacity="1.000000" stroke="none" 
	d="
M126.628983,135.869690 
	C137.727539,138.295410 144.206039,147.078079 142.494431,156.835587 
	C140.758560,166.731354 132.058945,173.594070 122.596741,172.531952 
	C112.217300,171.366837 105.357681,163.044998 105.862038,152.568604 
	C106.258957,144.323761 114.284836,134.439667 126.628983,135.869690 
z"/>
</svg>